<svg width="1512" height="648" viewBox="0 0 1512 648" fill="none" xmlns="http://www.w3.org/2000/svg">
  <path
    d="M1451.97 239.598C1447.31 244.844 1453.52 256.165 1457.22 261.169L1437.73 271.658C1430 267.419 1413.01 259.121 1406.89 259.839C1400.77 260.557 1388.58 256.918 1383.25 255.009C1380.92 253.565 1375.72 250.72 1373.6 250.888C1370.94 251.097 1358.6 248.503 1355.48 246.114C1352.37 243.725 1356.13 241.586 1357.81 242.751C1359.49 243.915 1373.81 246.378 1372.07 244.616C1370.68 243.206 1369.04 238.505 1368.4 236.332C1365.45 237.631 1359 239.875 1356.77 238.459C1353.98 236.69 1357.16 234.692 1358.27 234.947C1359.16 235.15 1364.25 232.912 1366.68 231.768C1366.6 230.476 1366.07 226.968 1364.61 223.267C1362.79 218.641 1361.23 215.088 1364.39 213.008C1367.56 210.928 1371.14 220.282 1372.94 231.994C1374.74 243.706 1377.6 243.272 1385.33 249.522C1393.05 255.773 1400.35 248.755 1416.11 255.326C1431.86 261.897 1440.9 259.175 1438 258.044C1435.69 257.139 1431.87 248.26 1430.26 243.933C1417.03 247.847 1401.47 241.841 1397.82 238.357C1394.18 234.873 1396.5 232.91 1395.93 227.716C1395.37 222.521 1388.48 217.203 1385.79 212.963C1383.1 208.722 1371.89 200.698 1369.58 198.026C1367.27 195.353 1365.61 191.037 1371.24 192.289C1376.88 193.541 1393.97 212.46 1398.71 219.35C1403.44 226.24 1399.98 226.032 1404.87 233.933C1408.79 240.254 1422.17 238.083 1428.38 236.207L1424.08 218.529C1421.94 209.734 1415.07 202.835 1413.41 198.302C1411.75 193.769 1409.22 186.837 1406.77 179.05C1404.32 171.263 1395.26 163.871 1394.72 162.046C1394.19 160.22 1383.42 157.713 1381.5 156.317C1379.58 154.922 1376.43 150.006 1377.58 147.862C1378.74 145.718 1382.55 150.66 1383.92 152.842C1385.28 155.025 1392.73 154.986 1391.49 152.585C1390.5 150.664 1386.96 144.527 1385.31 141.699C1380.31 136.457 1369.91 125.714 1368.32 124.685C1366.33 123.398 1362.04 120.714 1359.42 114.923C1356.8 109.133 1359.42 108.03 1361.19 109.929C1362.95 111.829 1365.9 118.566 1369.31 119.971C1372.04 121.095 1379.38 129.323 1382.7 133.296C1381.19 128.201 1377.97 117.345 1377.25 114.688C1376.53 112.032 1373.64 107.618 1372.28 105.743C1370.33 103.455 1367.11 98.2805 1369.89 95.8926C1373.35 92.9077 1376.54 102.566 1381.13 108.809C1385.72 115.051 1387.58 132.67 1389.21 135.161C1390.84 137.652 1396.1 148.576 1399.2 155.555C1401.67 161.138 1404.7 165.799 1405.9 167.431C1406.27 165.758 1407 161.744 1406.95 159.074C1406.88 155.737 1405.05 146.68 1404.45 145.337C1403.84 143.994 1404.74 141.541 1407.91 142.352C1411.09 143.163 1412.44 161.744 1410.74 166.255C1409.04 170.767 1414.92 173.586 1415.69 183.991C1416.3 192.315 1426.37 205.175 1431.33 210.565C1435.81 203.28 1444.85 188.421 1445.15 187.266C1445.52 185.823 1446.32 178.716 1445.68 174.597C1445.04 170.477 1447.16 168.823 1449.76 168.734C1452.35 168.644 1451.3 180.268 1450.97 184.497C1450.65 188.727 1439.96 207.654 1437.34 214.744C1435.24 220.416 1442.03 239.999 1445.68 249.081C1445 247.119 1444.45 242.482 1447.73 239.628C1451.83 236.061 1454.34 226.736 1454.83 224.87C1455.33 223.005 1454.05 212.954 1453.82 212.018C1453.6 211.081 1455.12 209.099 1455.98 210.214C1456.66 211.105 1457 216.781 1457.08 219.507C1458.98 217.142 1463.26 211.781 1465.16 209.263C1467.54 206.115 1468.65 189.565 1469.14 186.876C1469.63 184.187 1469.22 175.435 1468.69 173.278C1468.17 171.121 1472.01 170.473 1474.09 171.967C1476.16 173.462 1471.08 208.965 1464.09 217.803C1457.1 226.642 1457.8 233.04 1451.97 239.598Z"
    fill="url(#paint0_linear_646_2905)" stroke="#191561" />
  <path
    d="M1465.22 218.54C1469.58 219.766 1470.15 228.079 1469.88 232.082L1484.12 230.996C1486.84 226.002 1493.18 215.58 1496.75 213.84C1500.33 212.1 1505.68 205.881 1507.91 202.988C1508.67 201.392 1510.51 198.038 1511.72 197.389C1513.24 196.577 1519.04 190.872 1519.9 188.49C1520.76 186.107 1517.97 186.256 1517.46 187.474C1516.95 188.692 1510.03 195.014 1510.36 193.452C1510.63 192.202 1509.88 189.078 1509.48 187.673C1511.53 187.353 1515.82 186.326 1516.53 184.78C1517.43 182.848 1515.01 182.872 1514.49 183.396C1514.08 183.816 1510.54 184.371 1508.82 184.596C1508.42 183.866 1507.48 181.777 1506.99 179.259C1506.36 176.112 1505.98 173.638 1503.53 173.61C1501.09 173.581 1502.4 179.91 1505.5 186.898C1508.6 193.885 1506.89 194.646 1504.87 200.731C1502.85 206.815 1496.45 205.543 1490.18 214.597C1483.91 223.651 1478.05 225.32 1479.23 223.697C1480.17 222.399 1479.15 216.248 1478.52 213.335C1487.07 210.857 1493.43 202.177 1494.2 199.016C1494.97 195.855 1493.02 195.596 1491.52 192.579C1490.02 189.561 1491.91 184.275 1491.89 181.035C1491.88 177.795 1495.18 169.533 1495.5 167.277C1495.83 165.021 1495.23 162.099 1492.6 164.741C1489.98 167.383 1487.28 183.61 1487.1 189.001C1486.93 194.391 1488.74 193.074 1488.83 199.068C1488.9 203.863 1480.88 207.344 1476.86 208.485L1473.04 197.388C1471.13 191.866 1472.47 185.726 1471.79 182.686C1471.12 179.645 1470.07 175.002 1468.69 169.919C1467.31 164.836 1469.66 157.666 1469.32 156.488C1468.98 155.31 1473.95 150.201 1474.51 148.774C1475.07 147.346 1475.07 143.579 1473.69 142.817C1472.32 142.055 1471.97 146.066 1471.99 147.727C1472 149.389 1467.95 151.959 1467.78 150.224C1467.65 148.837 1467.44 144.269 1467.35 142.159C1468.24 137.571 1470.15 128.116 1470.66 127.003C1471.29 125.612 1472.68 122.662 1472.09 118.605C1471.49 114.548 1469.69 114.862 1469.39 116.508C1469.09 118.154 1469.84 122.837 1468.47 124.79C1467.38 126.352 1466.26 133.374 1465.84 136.689C1464.89 133.393 1462.86 126.377 1462.32 124.684C1461.79 122.99 1461.82 119.586 1461.91 118.095C1462.17 116.172 1462.12 112.243 1459.78 111.911C1456.86 111.497 1458.49 117.852 1458.17 122.841C1457.85 127.83 1462.97 138.047 1462.95 139.968C1462.94 141.888 1463.88 149.653 1464.63 154.521C1465.23 158.415 1465.21 162 1465.12 163.306C1464.34 162.526 1462.55 160.598 1461.64 159.13C1460.52 157.294 1458.36 151.738 1458.22 150.798C1458.08 149.858 1456.74 148.837 1455.3 150.383C1453.86 151.93 1459.59 162.492 1462.08 164.351C1464.58 166.211 1462.36 169.788 1465.57 175.705C1468.14 180.44 1467.15 190.93 1466.33 195.584C1461.36 193.188 1451.27 188.265 1450.71 187.741C1450 187.086 1447.1 183.505 1446.01 181.044C1444.92 178.584 1443.2 178.425 1441.75 179.279C1440.31 180.134 1444.93 186.081 1446.58 188.264C1448.23 190.448 1460.63 197.008 1464.52 199.947C1467.63 202.297 1470.76 215.296 1471.94 221.502C1471.63 220.199 1470.31 217.489 1467.53 217.08C1464.07 216.569 1459.46 212.377 1458.54 211.537C1457.62 210.697 1454.82 204.793 1454.61 204.205C1454.41 203.617 1452.89 203.072 1452.82 203.974C1452.76 204.696 1454.55 207.897 1455.45 209.407C1453.6 208.784 1449.41 207.36 1447.5 206.654C1445.11 205.772 1438.74 197.172 1437.54 195.882C1436.34 194.591 1433.52 189.693 1433.05 188.339C1432.59 186.985 1430.27 187.97 1429.67 189.505C1429.06 191.039 1444.18 208.555 1451.05 210.922C1457.92 213.29 1459.77 217.008 1465.22 218.54Z"
    fill="url(#paint1_linear_646_2905)" stroke="#191561" />
  <path
    d="M1364.31 243.891C1363.94 242.245 1363.54 240.901 1363.1 239.854C1362.35 238.037 1361.35 236.878 1360.1 236.36C1358.71 235.787 1357.51 236.378 1356.51 238.112C1355.86 239.063 1355.41 240.474 1355.17 242.34C1354.98 243.863 1354.94 245.471 1355.06 247.164C1355.37 251.382 1356.42 255.858 1358.19 260.603C1358.83 262.288 1359.72 264.406 1360.85 266.952C1362.34 270.257 1363.26 272.339 1363.61 273.188C1365.5 277.748 1366.96 282.768 1367.96 288.236C1368.29 290.017 1368.76 292.699 1369.38 296.289C1369.95 299.458 1370.5 302.083 1371.03 304.165C1372.35 309.398 1374.13 314.145 1376.38 318.418C1377.14 319.843 1378.28 321.922 1379.82 324.664C1381.13 327.128 1382.12 329.444 1382.8 331.609C1383.4 333.533 1384.06 336.131 1384.78 339.415C1385.74 343.774 1386.33 346.431 1386.57 347.382C1387.19 349.842 1388.09 352.483 1389.25 355.31C1389.48 355.851 1390.55 358.285 1392.47 362.599C1393.77 365.525 1394.77 368.021 1395.46 370.101C1396.41 372.972 1397.07 375.843 1397.44 378.705C1397.46 378.96 1397.56 379.117 1397.71 379.203C1397.72 379.738 1397.88 380.022 1398.21 380.057C1398.53 380.091 1398.73 379.82 1398.79 379.252C1399.06 376.894 1398.98 374.502 1398.57 372.084C1398.23 370.058 1397.65 367.957 1396.82 365.796C1396.54 365.037 1396.02 363.79 1395.29 362.042C1394.61 360.461 1394.1 359.197 1393.77 358.252C1393 356.071 1392.35 353.445 1391.82 350.393C1391.59 349.055 1391.2 346.385 1390.67 342.379C1390.21 339.018 1389.79 336.38 1389.38 334.453C1388.87 331.976 1388.14 329.442 1387.18 326.849C1386.5 324.987 1385.55 322.706 1384.33 320.004C1382.89 316.801 1381.89 314.467 1381.3 313.001C1380.26 310.288 1379.47 307.694 1378.93 305.231C1378.49 303.159 1378.04 300.453 1377.59 297.125C1376.94 292.213 1376.57 289.451 1376.48 288.85C1376.08 286.174 1375.5 283.484 1374.76 280.775C1374.12 278.489 1373.32 276.017 1372.34 273.362C1370.23 267.583 1368.61 262.478 1367.46 258.046C1366.75 255.236 1365.99 251.961 1365.21 248.214C1364.83 246.281 1364.53 244.831 1364.32 243.886L1364.31 243.891Z"
    fill="url(#paint2_linear_646_2905)" stroke="#2F6193" />
  <path
    d="M1383.22 274.812C1383.54 278.254 1384.1 281.38 1384.89 284.194C1385.33 285.779 1385.95 287.675 1386.72 289.887C1387.14 291.13 1387.78 292.983 1388.64 295.434C1390.14 299.894 1391.1 303.902 1391.54 307.462C1391.69 308.715 1391.9 310.845 1392.17 313.837C1392.42 316.581 1392.64 318.703 1392.85 320.208C1393.29 323.597 1394.11 327.542 1395.31 332.031C1395.68 333.407 1396.24 335.456 1396.99 338.182C1397.62 340.591 1398.13 342.684 1398.5 344.476C1398.89 346.335 1399.21 348.509 1399.47 350.985C1399.58 352.087 1399.77 354.326 1400.05 357.691C1400.45 362.598 1401.3 367.297 1402.62 371.803C1403.03 373.186 1403.66 375.245 1404.52 377.953C1405.19 380.365 1405.53 382.64 1405.57 384.774C1405.56 385.089 1405.66 385.293 1405.85 385.379C1405.98 387.001 1406.15 388.588 1406.38 390.154C1406.29 390.564 1406.35 390.901 1406.55 391.15C1406.75 391.418 1406.97 391.398 1407.21 391.07L1407.37 390.818L1407.38 390.81C1408.24 389.512 1408.82 387.781 1409.13 385.605C1409.37 383.823 1409.43 381.862 1409.29 379.73C1409.15 377.618 1408.81 375.296 1408.25 372.769C1408.09 372.065 1407.55 369.887 1406.63 366.247C1405.38 361.374 1404.65 356.42 1404.45 351.389C1404.41 350.457 1404.35 347.958 1404.26 343.888C1404.2 340.814 1404.1 338.328 1403.95 336.429C1403.77 334.022 1403.43 331.525 1402.94 328.954C1402.54 326.925 1401.99 324.584 1401.28 321.947C1400.53 319.117 1399.92 316.746 1399.47 314.827C1398.87 312.207 1398.38 309.729 1398.01 307.399C1397.68 305.272 1397.02 300.273 1396.06 292.4C1395.31 286.191 1394.54 281.265 1393.75 277.63C1393.19 275.006 1392.52 272.57 1391.75 270.327C1391.33 269.088 1390.97 268.139 1390.67 267.477C1390.22 266.495 1389.73 265.755 1389.21 265.241C1388.38 264.411 1387.61 263.968 1386.92 263.932C1385.93 263.875 1384.96 264.58 1384.02 266.054C1383.08 267.524 1382.81 270.442 1383.22 274.808L1383.22 274.812Z"
    fill="url(#paint3_linear_646_2905)" stroke="#2F6193" />
  <path
    d="M1353.85 303.63C1353.27 302.352 1352.84 301.166 1352.56 300.07C1352.07 298.159 1351.98 296.195 1352.3 294.157C1352.65 291.878 1353.45 290.395 1354.68 289.721C1355.4 289.204 1356.23 289.189 1357.18 289.673C1357.95 290.077 1358.7 290.746 1359.41 291.674C1361.19 294.007 1362.75 297.52 1364.12 302.22C1364.6 303.897 1365.16 306.132 1365.82 308.923C1366.66 312.555 1367.2 314.812 1367.43 315.713C1368.66 320.499 1370.29 324.844 1372.33 328.75C1372.99 330.028 1373.99 331.918 1375.35 334.418C1376.53 336.653 1377.48 338.618 1378.19 340.318C1379.98 344.571 1381.34 349.29 1382.28 354.451C1382.59 356.187 1383.03 358.783 1383.6 362.239C1384.14 365.234 1384.75 367.708 1385.43 369.655C1386.03 371.395 1386.92 373.516 1388.09 376.023C1389.65 379.36 1390.58 381.417 1390.91 382.192C1391.75 384.193 1392.56 386.672 1393.32 389.632C1393.47 390.198 1394.1 392.842 1395.2 397.557C1395.96 400.752 1396.65 403.314 1397.28 405.243C1398.17 407.902 1399.17 410.144 1400.31 411.957C1400.41 412.115 1400.44 412.317 1400.42 412.583C1400.65 412.831 1400.71 413.2 1400.58 413.691C1400.45 414.181 1400.25 414.343 1399.96 414.17C1398.78 413.508 1397.73 412.332 1396.81 410.647C1396.04 409.251 1395.35 407.465 1394.73 405.291C1394.51 404.54 1394.18 403.241 1393.71 401.387C1393.29 399.7 1392.94 398.402 1392.66 397.483C1392.01 395.395 1391.11 393.283 1389.96 391.151C1389.46 390.215 1388.42 388.459 1386.84 385.897C1385.52 383.737 1384.51 381.937 1383.82 380.499C1382.92 378.652 1382.1 376.455 1381.34 373.903C1380.8 372.084 1380.19 369.68 1379.5 366.704C1378.69 363.19 1378.07 360.684 1377.66 359.185C1376.89 356.45 1376.06 354.152 1375.19 352.274C1374.45 350.7 1373.42 348.847 1372.1 346.708C1370.17 343.569 1369.08 341.794 1368.85 341.397C1367.81 339.617 1366.85 337.58 1365.96 335.281C1365.2 333.343 1364.44 331.068 1363.67 328.459C1361.98 322.816 1360.38 318.173 1358.88 314.54C1357.93 312.236 1356.77 309.681 1355.42 306.874C1354.71 305.458 1354.19 304.377 1353.86 303.645L1353.85 303.63Z"
    fill="url(#paint4_linear_646_2905)" stroke="#2F6193" />
  <path
    d="M1372.96 260.074C1373.29 263.232 1373.84 266.102 1374.6 268.672C1375.03 270.113 1375.61 271.85 1376.35 273.861C1376.75 274.991 1377.36 276.674 1378.18 278.912C1379.61 282.976 1380.55 286.643 1380.99 289.907C1381.14 291.059 1381.36 293.006 1381.64 295.769C1381.89 298.287 1382.12 300.238 1382.32 301.614C1382.77 304.727 1383.57 308.331 1384.72 312.436C1385.08 313.692 1385.61 315.566 1386.34 318.059C1386.95 320.255 1387.44 322.173 1387.8 323.818C1388.17 325.521 1388.49 327.513 1388.76 329.786C1388.88 330.802 1389.08 332.851 1389.37 335.948C1389.78 340.454 1390.63 344.768 1391.89 348.874C1392.28 350.145 1392.89 352.014 1393.71 354.486C1394.35 356.688 1394.7 358.773 1394.75 360.736C1394.75 361.027 1394.84 361.208 1395.02 361.282C1395.15 362.773 1395.32 364.235 1395.55 365.665C1395.47 366.047 1395.53 366.35 1395.71 366.583C1395.91 366.824 1396.11 366.8 1396.32 366.492L1396.47 366.252L1396.48 366.244C1397.26 365.022 1397.78 363.405 1398.04 361.397C1398.25 359.744 1398.28 357.935 1398.13 355.979C1397.98 354.03 1397.64 351.91 1397.1 349.597C1396.95 348.95 1396.42 346.963 1395.54 343.634C1394.33 339.183 1393.61 334.642 1393.37 330.008C1393.32 329.153 1393.24 326.849 1393.13 323.099C1393.04 320.267 1392.91 317.979 1392.76 316.232C1392.57 314.016 1392.24 311.733 1391.75 309.375C1391.36 307.513 1390.83 305.378 1390.15 302.97C1389.41 300.384 1388.83 298.215 1388.4 296.459C1387.81 294.064 1387.33 291.796 1386.97 289.657C1386.63 287.712 1385.98 283.118 1385.01 275.894C1384.25 270.198 1383.49 265.677 1382.73 262.353C1382.18 259.946 1381.54 257.727 1380.81 255.686C1380.41 254.559 1380.07 253.695 1379.77 253.095C1379.34 252.205 1378.89 251.531 1378.41 251.078C1377.62 250.333 1376.91 249.955 1376.27 249.941C1375.36 249.921 1374.47 250.597 1373.61 251.984C1372.75 253.367 1372.53 256.058 1372.96 260.07L1372.96 260.074Z"
    fill="url(#paint5_linear_646_2905)" stroke="#2F6193" />
  <path
    d="M1289.96 340.777C1291.43 339.641 1292.9 339.117 1294.39 339.191C1295.56 339.231 1297.2 340.682 1299.28 343.537C1300.35 344.991 1302.24 347.949 1304.97 352.418C1307.36 356.314 1309.1 358.895 1310.2 360.157C1311.86 362.066 1313 362.359 1313.63 361.036C1314.28 359.653 1314.45 358.355 1314.12 357.155C1313.88 356.179 1313.26 355.092 1312.23 353.9C1310.87 352.459 1309.79 351.324 1309.01 350.488C1307.55 348.957 1306.38 347.517 1305.51 346.166C1304.45 344.53 1303.69 342.7 1303.21 340.682C1302.75 338.728 1302.35 335.99 1302.55 334.254C1302.77 332.421 1304.5 330.273 1305.36 329.184C1306.3 327.988 1306.61 328.921 1308.13 328.82C1310.95 328.661 1312.37 330.547 1313.58 333.018C1314.48 334.871 1315.4 336.263 1315.17 338.636C1315.07 339.542 1315.32 341.055 1315.9 343.153C1316.5 345.325 1317.27 347.437 1318.21 349.498C1319.26 351.822 1320.33 353.538 1321.41 354.666C1322.66 355.991 1323.81 356.345 1324.85 355.727C1325.86 355.125 1326.39 353.969 1326.45 352.252C1326.47 350.994 1326.2 349.066 1325.64 346.475C1324.2 342.405 1324.8 340.037 1324.7 339.537C1324.21 336.706 1322.93 334.44 1323.1 332.454C1323.28 330.285 1323.62 327.736 1324.73 326.512C1325.69 325.435 1328.13 324.301 1329.54 324.214C1330.87 324.113 1331.72 325.185 1332.86 325.994C1334.02 326.855 1334.76 328.495 1335.11 329.918C1335.43 331.217 1335.75 333.253 1335.48 335.974C1335.32 337.411 1334.3 340.091 1333.73 343.693C1333.24 346.813 1332.93 348.273 1332.88 349.528C1332.79 351.404 1333.44 352.942 1334.05 353.056C1337.44 355.02 1340.95 347.25 1342.83 337.406C1343.09 333.943 1345.55 330.34 1347.88 329.006C1350.26 327.64 1350.9 328.883 1353.11 330.849C1354.13 331.778 1355.53 333.423 1354.69 335.545C1354.02 337.219 1353.53 339.425 1351.53 342.182C1350.39 343.757 1348.29 344.853 1345.87 347.973C1343.63 350.07 1342.73 353.012 1342.16 354.238C1341.47 355.734 1340.74 356.468 1341 357.533C1341.4 359.246 1342.43 359.956 1343.35 359.934C1344.38 359.921 1345.53 359.232 1346.82 357.863C1348.33 356.277 1349.82 353.948 1351.27 350.888C1352.76 347.755 1354.3 344.84 1356.08 343.068C1357.67 341.473 1359.4 340.982 1361.04 340.661C1362.53 340.358 1363.87 340.101 1365.06 340.901C1366.2 341.687 1367.25 343.294 1367.73 344.847C1368.14 346.248 1367.17 347.962 1366.04 349.626C1365.2 350.864 1363.69 352.816 1361.68 354.558C1359.34 356.474 1357.96 357.097 1356.95 358.014C1355.24 359.559 1353.86 360.79 1353.49 361.829C1353.07 362.999 1353.59 364.307 1354.03 365.208C1354.45 366.078 1355.16 366.581 1356.14 366.717C1357.19 366.875 1358.25 366.561 1359.33 365.77C1360.59 364.865 1361.3 362.312 1362.25 360.39C1364.15 356.454 1366.57 354.871 1368.66 353.723C1370.61 352.67 1372.09 354.285 1373.16 355.946C1373.7 356.755 1372.8 360.11 1372.33 362.21C1371.82 364.421 1371.81 363.722 1370.55 365.77C1369.07 368.126 1366.56 370.509 1364.6 371.66C1362.28 372.997 1359.14 374.657 1356.04 372.588C1352.68 371.736 1351.93 370.631 1350.81 370.744C1348.54 370.988 1347.22 371.873 1346.24 374.59C1344.88 377.709 1344.96 384.336 1346.7 388.252C1347.14 389.723 1347.79 391.48 1348.66 393.525C1349.48 395.453 1349.74 397.248 1349.86 397.715L1332.07 391.44C1333.75 388.794 1334.76 386.053 1335.08 383.196C1335.45 380.008 1334.94 376.873 1333.54 373.777C1332.45 371.353 1331.07 371.572 1329.01 370.567C1328.05 370.1 1326.07 369.174 1324.78 369.076C1323.89 369.032 1323.26 367.801 1321.58 367.946C1317.4 368.297 1314.18 368.297 1311.92 367.942C1307.61 367.28 1303.24 365.436 1298.82 362.416C1294.12 359.199 1290.79 356.031 1288.83 352.922C1287.21 350.287 1286.6 347.832 1287.01 345.54C1287.35 343.618 1288.34 342.03 1289.96 340.795L1289.96 340.777Z"
    fill="#F4B194" stroke="black" />
  <g style="mix-blend-mode:multiply">
    <path
      d="M1292.34 343.268C1293.75 342.18 1295.16 341.678 1296.58 341.748C1297.71 341.787 1299.27 343.177 1301.27 345.913C1302.29 347.306 1304.1 350.14 1306.72 354.422C1309.01 358.155 1310.68 360.628 1311.73 361.837C1313.32 363.666 1314.42 363.947 1315.02 362.679C1315.64 361.354 1315.8 360.11 1315.49 358.96C1315.26 358.025 1314.66 356.984 1313.68 355.842C1312.37 354.461 1311.34 353.374 1310.59 352.573C1309.19 351.106 1308.07 349.726 1307.24 348.431C1306.23 346.864 1305.5 345.11 1305.04 343.177C1304.59 341.304 1304.21 338.681 1304.4 337.018C1304.61 335.261 1304.6 335.328 1307.09 332.16C1307.99 331.014 1308.43 330.883 1309.89 330.787C1312.59 330.635 1313.81 333.466 1314.97 335.834C1315.83 337.609 1316.71 338.943 1316.5 341.216C1316.4 342.085 1316.64 343.535 1317.2 345.545C1317.77 347.626 1318.51 349.649 1319.4 351.624C1320.42 353.851 1321.44 355.495 1322.47 356.576C1323.67 357.845 1324.77 358.184 1325.77 357.593C1326.74 357.015 1327.24 355.908 1327.3 354.263C1327.32 353.058 1327.06 351.21 1326.52 348.727C1325.15 344.828 1325.72 342.559 1325.63 342.079C1325.15 339.367 1323.93 337.196 1324.09 335.293C1324.26 333.215 1324.59 330.773 1325.65 329.6C1326.57 328.568 1328.91 327.481 1330.26 327.398C1331.53 327.301 1332.35 328.328 1333.44 329.104C1334.56 329.928 1335.26 331.5 1335.6 332.864C1335.91 334.108 1336.22 336.058 1335.95 338.666C1335.8 340.043 1334.82 342.611 1334.28 346.062C1333.81 349.051 1333.51 350.451 1333.46 351.653C1333.37 353.451 1334 354.924 1334.58 355.033C1337.84 356.915 1341.2 349.471 1342.99 340.039C1343.25 336.72 1345.6 333.268 1347.84 331.99C1350.12 330.681 1350.73 331.871 1352.84 333.756C1353.82 334.646 1355.16 336.222 1354.36 338.255C1353.72 339.859 1353.25 341.973 1351.33 344.614C1350.24 346.123 1348.22 347.174 1345.91 350.163C1343.76 352.172 1342.9 354.991 1342.35 356.166C1341.69 357.6 1341 358.303 1341.24 359.323C1341.63 360.964 1342.61 361.644 1343.5 361.623C1344.48 361.611 1345.58 360.951 1346.82 359.639C1348.27 358.119 1349.69 355.888 1351.08 352.956C1352.51 349.954 1353.98 347.161 1355.69 345.463C1357.22 343.935 1358.87 343.465 1360.44 343.157C1361.88 342.867 1363.15 342.62 1364.29 343.387C1365.39 344.14 1366.39 345.68 1366.85 347.167C1367.25 348.51 1366.32 350.153 1365.24 351.747C1364.43 352.933 1362.99 354.803 1361.06 356.472C1358.81 358.308 1357.49 358.905 1356.52 359.784C1354.89 361.264 1353.57 362.444 1353.21 363.439C1352.81 364.56 1353.31 365.813 1353.73 366.677C1354.13 367.511 1354.81 367.993 1355.75 368.123C1356.76 368.274 1357.77 367.973 1358.8 367.215C1360.01 366.348 1360.69 363.902 1361.6 362.06C1363.42 358.289 1365.75 356.772 1367.74 355.672C1369.61 354.664 1371.03 356.21 1372.06 357.802C1372.58 358.577 1371.71 361.792 1371.26 363.804C1370.77 365.923 1370.76 365.252 1369.55 367.215C1368.14 369.473 1365.73 371.756 1363.85 372.859C1361.63 374.14 1358.62 375.731 1355.65 373.748C1352.44 372.931 1351.72 371.873 1350.64 371.981C1348.47 372.215 1347.2 373.063 1346.26 375.666C1344.96 378.655 1345.04 385.005 1346.7 388.756C1347.13 390.165 1347.75 391.85 1348.58 393.809C1349.37 395.656 1349.62 397.376 1349.74 397.824L1332.68 391.811C1334.3 389.276 1335.27 386.649 1335.57 383.912C1335.93 380.857 1335.43 377.854 1334.1 374.887C1333.05 372.565 1331.73 372.774 1329.76 371.812C1328.83 371.364 1326.94 370.477 1325.7 370.383C1324.85 370.341 1324.25 369.161 1322.63 369.3C1318.63 369.636 1315.54 369.636 1313.38 369.296C1309.25 368.662 1305.07 366.895 1300.83 364.001C1296.33 360.919 1293.14 357.884 1291.26 354.905C1289.7 352.38 1289.12 350.027 1289.51 347.832C1289.84 345.99 1290.79 344.469 1292.34 343.285L1292.34 343.268Z"
      fill="#DDA8D6" />
  </g>
  <path
    d="M324.778 352.962C324.125 351.417 323.198 350.352 321.998 349.752C321.057 349.264 319.128 349.681 316.226 351.004C314.744 351.675 311.945 353.163 307.815 355.466C304.214 357.473 301.704 358.733 300.281 359.238C298.129 360.004 297.1 359.728 297.192 358.409C297.294 357.034 297.736 355.938 298.522 355.138C299.145 354.477 300.119 353.9 301.45 353.416C303.164 352.888 304.513 352.473 305.499 352.162C307.321 351.602 308.881 350.989 310.165 350.313C311.718 349.493 313.129 348.392 314.397 347.016C315.628 345.685 317.156 343.71 317.764 342.254C318.408 340.718 317.999 338.262 317.806 337.026C317.597 335.669 316.939 336.265 315.788 335.513C313.639 334.138 311.687 334.992 309.643 336.4C308.115 337.459 306.774 338.145 305.901 340.111C305.577 340.868 304.713 341.948 303.324 343.339C301.89 344.781 300.352 346.102 298.703 347.308C296.843 348.668 295.244 349.546 293.897 349.954C292.322 350.44 291.263 350.21 290.718 349.264C290.19 348.342 290.288 347.201 291 345.823C291.542 344.825 292.609 343.429 294.199 341.64C297.131 339.076 297.709 336.949 298.006 336.597C299.649 334.591 301.657 333.375 302.407 331.739C303.226 329.955 304.081 327.796 303.757 326.345C303.475 325.071 302.063 323.101 300.989 322.406C299.992 321.74 298.847 322.205 297.592 322.336C296.295 322.497 294.989 323.461 294.079 324.423C293.256 325.305 292.101 326.762 291.109 329.023C290.598 330.223 290.216 332.784 289.065 335.867C288.068 338.537 287.666 339.824 287.151 340.833C286.393 342.35 285.2 343.271 284.667 343.089C281.129 343.13 281.811 335.467 284.697 326.895C286.023 324.054 285.685 320.132 284.444 318.051C283.176 315.922 282.125 316.617 279.517 317.185C278.302 317.463 276.475 318.138 276.197 320.18C275.98 321.791 275.389 323.743 275.74 326.797C275.939 328.541 277.106 330.333 277.624 333.856C278.459 336.499 277.865 339.212 277.769 340.427C277.648 341.909 277.893 342.808 277.223 343.533C276.145 344.701 275.023 344.804 274.306 344.377C273.507 343.914 272.907 342.863 272.5 341.215C272.009 339.295 271.874 336.807 272.088 333.758C272.306 330.635 272.387 327.661 271.766 325.477C271.223 323.519 270.085 322.369 268.937 321.39C267.893 320.488 266.957 319.694 265.67 319.798C264.419 319.908 262.887 320.71 261.822 321.718C260.876 322.637 260.879 324.414 261.031 326.223C261.146 327.571 261.464 329.771 262.277 332.033C263.267 334.576 264.077 335.678 264.466 336.846C265.124 338.817 265.663 340.396 265.498 341.379C265.304 342.482 264.319 343.282 263.576 343.797C262.858 344.294 262.081 344.377 261.244 344.047C260.351 343.707 259.655 342.99 259.159 341.891C258.568 340.621 259.143 338.3 259.248 336.368C259.493 332.429 258.289 330.112 257.158 328.285C256.091 326.594 254.213 327.209 252.63 328.038C251.849 328.436 251.07 331.473 250.509 333.332C249.936 335.299 250.25 334.752 250.338 336.923C250.455 339.429 251.377 342.417 252.407 344.19C253.641 346.269 255.375 348.965 258.724 348.709C261.741 349.525 262.82 348.989 263.655 349.575C265.33 350.772 265.977 352.053 265.547 354.625C265.23 357.678 262.236 362.856 259.132 365.164C258.134 366.125 256.842 367.218 255.255 368.442C253.755 369.594 252.757 370.891 252.453 371.204L269.227 374.152C269.072 371.324 269.492 368.721 270.506 366.333C271.628 363.662 273.422 361.426 275.89 359.608C277.826 358.189 278.812 358.97 280.874 359.091C281.839 359.15 283.803 359.298 284.861 359.791C285.582 360.153 286.623 359.463 287.88 360.322C291.011 362.449 293.547 363.877 295.481 364.599C299.161 365.986 303.41 366.469 308.228 366.054C313.345 365.604 317.366 364.588 320.284 363.01C322.729 361.658 324.297 359.998 324.99 358.015C325.568 356.349 325.498 354.665 324.768 352.975L324.778 352.962Z"
    fill="#F4B194" stroke="black" />
  <g style="mix-blend-mode:multiply">
    <path
      d="M321.804 353.868C321.179 352.388 320.29 351.367 319.14 350.793C318.238 350.325 316.391 350.724 313.61 351.992C312.19 352.635 309.508 354.061 305.551 356.267C302.1 358.19 299.696 359.397 298.332 359.881C296.27 360.615 295.284 360.351 295.372 359.087C295.47 357.77 295.894 356.72 296.647 355.953C297.243 355.32 298.176 354.767 299.453 354.303C301.094 353.797 302.387 353.399 303.332 353.102C305.077 352.565 306.572 351.978 307.803 351.33C309.29 350.544 310.642 349.489 311.857 348.171C313.037 346.896 314.501 345.003 315.083 343.608C315.701 342.136 315.677 342.192 315.124 338.599C314.923 337.299 314.634 337.001 313.531 336.28C311.472 334.962 309.261 336.65 307.302 337.999C305.838 339.013 304.554 339.671 303.717 341.555C303.407 342.28 302.578 343.315 301.248 344.648C299.874 346.03 298.4 347.295 296.82 348.451C295.038 349.754 293.506 350.595 292.215 350.986C290.706 351.452 289.691 351.231 289.169 350.324C288.664 349.442 288.758 348.348 289.439 347.027C289.959 346.072 290.981 344.734 292.505 343.02C295.314 340.564 295.868 338.525 296.152 338.188C297.727 336.266 299.651 335.101 300.369 333.533C301.154 331.823 301.973 329.755 301.662 328.365C301.392 327.144 300.039 325.256 299.011 324.591C298.055 323.952 296.958 324.398 295.755 324.524C294.513 324.678 293.261 325.601 292.389 326.523C291.601 327.368 290.494 328.764 289.544 330.93C289.054 332.081 288.688 334.534 287.586 337.488C286.63 340.047 286.245 341.279 285.752 342.247C285.025 343.7 283.882 344.582 283.372 344.408C279.981 344.448 280.635 337.105 283.4 328.892C284.67 326.17 284.347 322.412 283.158 320.418C281.943 318.378 280.935 319.044 278.436 319.588C277.272 319.854 275.522 320.502 275.256 322.457C275.048 324.002 274.482 325.872 274.818 328.798C275.009 330.468 276.127 332.186 276.623 335.562C277.423 338.094 276.854 340.694 276.762 341.858C276.646 343.278 276.881 344.139 276.239 344.834C275.206 345.952 274.131 346.051 273.444 345.643C272.679 345.199 272.104 344.191 271.714 342.612C271.243 340.773 271.114 338.389 271.318 335.467C271.528 332.476 271.605 329.626 271.011 327.533C270.49 325.657 269.399 324.555 268.3 323.617C267.299 322.753 266.403 321.992 265.17 322.092C263.971 322.197 262.503 322.965 261.483 323.931C260.576 324.812 260.579 326.515 260.724 328.248C260.835 329.539 261.14 331.648 261.918 333.815C262.867 336.251 263.643 337.307 264.016 338.427C264.647 340.315 265.163 341.828 265.004 342.77C264.819 343.826 263.875 344.593 263.163 345.086C262.475 345.563 261.73 345.643 260.929 345.326C260.073 345 259.406 344.314 258.931 343.261C258.365 342.044 258.915 339.82 259.016 337.968C259.251 334.194 258.097 331.974 257.013 330.223C255.991 328.603 254.192 329.192 252.675 329.987C251.927 330.368 251.181 333.278 250.643 335.059C250.094 336.944 250.395 336.42 250.479 338.5C250.591 340.902 251.474 343.764 252.462 345.463C253.643 347.455 255.305 350.039 258.514 349.793C261.405 350.575 262.438 350.061 263.239 350.623C264.843 351.769 265.463 352.997 265.051 355.461C264.748 358.386 261.879 363.348 258.905 365.559C257.949 366.48 256.711 367.527 255.191 368.701C253.753 369.804 252.797 371.047 252.505 371.347L268.578 374.172C268.429 371.461 268.832 368.968 269.803 366.679C270.878 364.121 272.597 361.978 274.962 360.236C276.817 358.876 277.762 359.625 279.737 359.74C280.661 359.797 282.544 359.938 283.557 360.412C284.248 360.758 285.245 360.097 286.45 360.92C289.45 362.958 291.88 364.327 293.733 365.018C297.259 366.347 301.33 366.809 305.946 366.412C310.849 365.981 314.702 365.007 317.498 363.496C319.84 362.2 321.343 360.609 322.007 358.709C322.561 357.113 322.494 355.5 321.795 353.88L321.804 353.868Z"
      fill="#DDA8D6" />
  </g>
  <path
    d="M154.805 224.616C148.651 231.59 155.626 245.078 152.344 255.074C151.351 260.101 150.552 270.156 155.3 270.156C161.235 270.156 161.235 282.442 161.136 283.926C161.057 285.113 160.378 295.169 160.048 300.049L127.052 313.081L95.4207 315.618L91.7733 304.517L119.474 285.824C124.953 281.689 113.29 274.268 115.263 265.873C117.541 256.177 91.3744 265.873 85.2422 265.873C79.11 265.873 85.7867 253.038 90.9877 255.074C96.1886 257.11 97.7192 258.319 103.888 255.074C110.056 251.828 105.46 247.555 108.363 237.637C111.266 227.719 111.75 226.751 112.717 218.284C113.685 209.818 110.903 210.301 108.363 205.947C105.823 201.593 91.4819 195.792 89.0195 185.932C86.2003 174.643 83.3346 168.694 89.0193 167.001C94.7041 165.307 99.1793 178.975 100.268 183.571C101.356 188.167 111.154 198.448 112.242 194.461C113.331 190.474 109.46 176.798 109.46 170.266C109.46 163.735 116.234 146.802 109.46 142.447C102.687 138.093 96.6393 121.885 94.4985 117.41C92.3578 112.935 93.1311 101.807 91.6796 94.5502C90.2282 87.2931 89.9863 78.8265 94.4979 79.6731C99.0095 80.5198 98.3967 97.6074 98.3967 105.073C98.3967 112.394 110.428 135.19 111.637 133.255C112.847 131.32 112.968 127.933 112.968 123.821C112.968 119.708 113.572 111.242 112.968 105.073C112.363 98.9045 111.032 87.2931 112.363 80.5198C113.693 73.7465 117.322 75.1979 120.225 77.7378C123.127 80.2778 121.918 118.257 121.071 123.821C120.224 129.384 117.564 147.164 118.289 152.849C119.015 158.534 125.184 145.592 126.272 143.657C127.361 141.722 131.836 132.65 133.408 128.659C134.981 124.667 135.223 122.006 135.706 118.983C136.19 115.959 137.37 110.081 141.512 113.177C143.879 114.946 142.594 122.885 140.538 129.537C138.482 136.19 134.741 145.079 129.177 151.368C123.613 157.658 123.943 158.897 122.734 170.266C121.524 181.636 125.401 212.735 125.401 212.735C125.401 212.735 127.111 213.182 128.201 198.499C128.55 193.801 133.61 188.248 134.438 185.932C136.252 180.852 134.438 175.497 134.438 169.083C134.438 166.528 133.82 161.337 134.908 158.192C135.997 155.047 139.335 157.445 139.335 162.283C139.335 166.154 138.529 176.556 138.125 181.273C139.698 179.741 143.33 177.32 143.795 176.818L143.871 176.735C145.671 174.789 148.666 171.55 151.113 173.895C153.326 176.016 139.625 189.333 136.138 194.461C132.682 199.543 132.682 203.26 132.683 208.086L132.683 208.217C132.683 213.107 129.562 217.221 125.401 223.231C118.016 233.898 125.195 236.36 122.734 248.873C120.272 261.386 138.395 274.669 142.497 270.156C146.6 265.643 143.523 262.771 144.754 256.207C145.985 249.642 144.754 248.617 144.754 241.027C144.754 233.437 143.113 230.841 144.754 228.05C146.395 225.258 149.117 221.328 150.088 214.179C151.113 206.631 146.22 201.537 151.786 200.027C157.187 198.563 154.805 224.616 154.805 224.616Z"
    fill="url(#paint6_linear_646_2905)" stroke="#0E114B" stroke-opacity="0.63" />
  <path
    d="M170.36 281.298C163.241 284.412 160.588 292.434 160.151 296.056C155.209 293.266 145.582 287.491 146.603 286.713C147.879 285.74 149.403 283.023 151.534 275.808C153.239 270.036 156.505 265.816 157.926 264.428C160.14 262.756 159.868 263.011 162.897 257.196C165.925 251.381 165.226 251.835 168.024 248.576C170.823 245.317 173.275 244.447 175.063 242.485C176.827 240.549 176.92 240.335 180.263 232.643L180.403 232.322C183.883 224.315 182.642 224.308 183.472 219.639C184.302 214.97 185.833 213.223 189.209 213.222C192.586 213.221 188.464 225.385 184.784 233.935C181.105 242.484 183.223 239.625 184.977 239.204C186.731 238.784 193.062 233.651 197.359 231.147C201.657 228.642 205.733 228.187 209.87 223.314C214.006 218.44 216.475 211.175 218.03 206.95C219.585 202.725 221.072 196.166 225.396 197.935C229.72 199.704 217.473 220.426 215.318 225.319C213.162 230.211 211.437 228.865 200.193 235.032C188.95 241.2 186.624 243.9 178.445 246.35C170.265 248.8 170.773 257.522 164.207 264.608C157.64 271.694 165.259 276.366 167.488 276.121C169.717 275.875 182.08 269.765 186.097 269.471C190.114 269.178 192.376 268.784 194.117 266.113C195.859 263.443 195.652 259.695 196.021 258.88C196.39 258.065 197.754 249.859 200.424 248.979C203.093 248.099 203.692 250.565 201.833 254.958C199.975 259.352 201.369 263.445 203.181 262.466C204.992 261.486 213.69 256.904 217.813 253.586C221.935 250.268 219.235 251.692 220.523 249.506C221.811 247.32 225.9 242.781 227.738 243.699C229.576 244.617 228.591 248.607 228.121 249.884C227.65 251.162 226.071 253.482 223.349 255.623C220.627 257.765 208.735 264.663 206.936 265.494C205.137 266.325 198.606 271.088 193.956 272.363C189.305 273.638 179.258 277.406 170.36 281.298Z"
    fill="url(#paint7_linear_646_2905)" stroke="#0E114B" stroke-opacity="0.63" />
  <path fill-rule="evenodd" clip-rule="evenodd"
    d="M1370.28 376.472L1357.45 374.73C1357.13 374.687 1356.86 374.543 1356.59 374.403L1356.51 374.363C1355.35 373.757 1352.63 373.758 1351.21 373.758L1345.62 373.758C1345.4 373.758 1345.2 373.799 1345.01 373.877L1339.39 376.22L1336.31 377.184C1336.16 377.23 1336.03 377.297 1335.91 377.381L1333.23 379.354C1333.17 379.397 1333.1 379.435 1333.03 379.469C1330.84 380.546 1326.02 382.956 1323.48 384.39C1320.91 385.847 1319.96 388.048 1319.82 388.967L1319.2 392.808C1319.14 393.194 1318.78 393.509 1318.3 393.644C1316.84 394.054 1314.9 394.857 1314.9 395.906C1314.9 396.567 1314.34 398.12 1313.81 399.596C1313.45 400.602 1313.1 401.573 1312.95 402.201C1312.88 402.51 1312.67 402.804 1312.34 402.984L1303.49 407.668C1302.45 408.274 1300.45 410.302 1300.2 413.758L1299.89 413.737L1183.36 420.457L1116.73 428.461L923.175 420.457L820.377 440.602H750.161L699.035 428.461L552.604 440.602L375.684 428.461H329.429C329.759 426.915 329.811 424.932 327.762 422.813C326.16 421.158 324.962 420.46 324.13 419.974C323.112 419.381 322.64 419.106 322.64 417.789C322.64 415.98 319.851 414.617 318.225 414.077C318.046 414.017 317.882 413.926 317.746 413.803L313.53 409.965C313.357 409.808 313.239 409.607 313.182 409.389C312.985 408.641 312.52 407.055 311.703 404.7C310.777 402.033 308.102 399.082 306.698 397.761C306.565 397.636 306.463 397.486 306.396 397.32C305.824 395.9 304.395 393.173 302.501 391.855C301.236 390.974 300.064 390.215 299.21 389.681C298.607 389.304 298.479 388.528 298.776 387.911C299.206 387.015 299.311 385.988 298.074 385.604C297.15 385.317 296.094 383.816 294.953 382.195C294.067 380.936 293.13 379.605 292.164 378.713C291.791 378.369 291.61 377.866 291.745 377.394C292.228 375.697 292.63 373.329 291.5 373.329C290.939 373.329 289.915 372.869 288.754 372.347C286.503 371.336 283.736 370.093 282.82 371.518C282.189 372.499 281.774 372.012 281.07 371.187C280.222 370.195 278.957 368.713 276.396 368.713C273.455 368.713 271.71 369.098 270.885 369.414C270.565 369.536 270.212 369.618 269.872 369.561L266.166 368.947L265.324 368.273C264.918 367.949 264.64 367.535 264.505 367.084C264.043 365.54 262.948 362.264 261.027 357.4C258.851 351.893 252.56 345.799 249.259 343.072C248.944 342.812 248.705 342.502 248.547 342.16C247.201 339.228 243.842 333.596 239.388 330.874C236.412 329.055 233.656 327.488 231.647 326.385C230.23 325.606 229.929 324.003 230.626 322.729C231.639 320.879 231.885 318.759 228.976 317.966C226.803 317.373 224.319 314.273 221.636 310.926C219.553 308.326 217.349 305.577 215.078 303.735C214.201 303.024 213.774 301.986 214.091 301.01C215.229 297.507 211.873 293.938 209.217 293.938C207.749 293.938 205.551 292.573 203.209 291.119C199.364 288.732 195.132 286.104 193.102 288.877C191.62 290.901 190.642 289.896 188.986 288.193C186.993 286.144 184.017 283.084 177.995 283.084C171.079 283.084 166.975 283.877 165.034 284.531C164.588 284.681 158.299 281.369 153.09 278.625L153.089 278.625L153.088 278.625C149.518 276.744 146.456 275.132 146.13 275.084L102.74 263.035C102.447 262.993 100.877 263.033 98.9853 263.081L98.9849 263.081C95.7832 263.163 91.6602 263.268 91.2444 263.035C88.5925 261.551 82.366 261.553 79.1301 261.554L66.3602 261.554C65.8762 261.554 65.4024 261.653 64.978 261.843L52.1513 267.585L45.1072 269.947C44.7708 270.06 44.4635 270.223 44.2017 270.43L38.0649 275.262C37.9294 275.369 37.786 275.462 37.6278 275.545C32.6122 278.183 21.6014 284.088 15.8135 287.601C9.93414 291.17 7.78384 296.564 7.4436 298.815L6.04298 308.225C5.90224 309.17 5.07343 309.944 3.97922 310.274C0.648804 311.278 -3.78439 313.246 -3.78439 315.816C-3.78439 317.436 -5.05566 321.24 -6.26403 324.855C-7.08828 327.322 -7.88326 329.7 -8.22553 331.239C-8.39404 331.996 -8.8626 332.716 -9.63644 333.155L-29.8365 344.632C-32.3641 346.219 -40.5257 362.139 -40.5257 371.701C-40.5257 376.366 -38.8304 378.96 -37.6352 380.788C-35.7681 383.645 -35.1217 384.634 -44.0671 388.733C-55.8042 394.112 -60.0876 399.142 -60.7621 400.985L-63.9264 412.198C-64.1594 413.024 -63.8303 413.889 -63.0649 414.461L-41.346 430.701C-40.8182 431.095 -40.1536 431.315 -39.4378 431.318C-29.8691 431.35 -16.5399 431.37 -1.94115 431.38L-1.94115 647.618H1511.67V453.293C1512.38 453.331 1513.03 453.369 1513.61 453.407C1524.97 454.146 1557.94 452.37 1573.01 451.39C1573.53 448.451 1572.01 446.856 1570.79 445.581C1570.06 444.815 1569.43 444.164 1569.43 443.407C1569.43 442.471 1568.82 442.222 1568.16 441.956C1567.39 441.649 1566.57 441.318 1566.57 439.877C1566.57 438.806 1566.02 438.535 1565.36 438.209C1564.36 437.716 1563.11 437.097 1563.11 433.406C1563.11 428.499 1560.61 426.922 1559.37 426.747C1558.7 424.548 1557.36 419.712 1557.36 417.953C1557.36 416.195 1554.68 409.578 1553.35 406.49C1551.94 403.14 1549.11 395.529 1549.11 391.886C1549.11 388.172 1546.89 382.16 1545.2 377.598C1544.82 376.567 1544.47 375.61 1544.17 374.77C1542.89 371.127 1543.64 363.596 1544.17 360.286C1543.83 358.421 1542.51 354.48 1539.97 353.638C1537.72 352.894 1538.09 351.558 1538.5 350.072C1538.67 349.455 1538.84 348.812 1538.84 348.174C1538.84 346.002 1537.63 343.238 1536.23 342.843C1534.83 342.448 1534.92 339.025 1535.39 335.405C1535.76 332.509 1534.3 328.581 1533.52 326.979C1533.61 324.5 1533.44 319.265 1532.02 318.159C1530.25 316.777 1529.59 308.746 1530.16 306.311C1530.6 304.362 1530.34 303.261 1530.16 302.954C1528.44 301.703 1525.69 298.952 1528.38 297.951C1530.9 297.015 1530.64 294.602 1530.35 291.902C1530.26 290.996 1530.16 290.057 1530.16 289.131C1530.16 287.445 1529.22 286.378 1528.46 285.516C1527.56 284.493 1526.91 283.757 1528.38 282.614C1530.55 280.929 1527.48 277.217 1525.67 275.571C1524.14 274.562 1520.87 272.53 1519.97 272.478C1518.93 272.416 1519.02 270.931 1519.19 268.128C1519.2 267.918 1519.21 267.7 1519.22 267.475C1519.37 264.895 1515.74 262.187 1513.9 261.156C1514.46 260.388 1515.58 258.536 1515.58 257.272C1515.58 256.009 1513.65 254.859 1512.68 254.442C1511.66 252.687 1509.6 248.584 1509.6 246.214C1509.6 243.845 1506.11 242.682 1504.37 242.396C1504.37 241.146 1502.74 238.644 1496.24 238.644C1493.42 238.644 1491.87 238.7 1490.85 238.737C1488.91 238.806 1488.82 238.809 1485.59 238.25C1483.03 237.807 1480.64 236.236 1478.49 234.824C1476.49 233.506 1474.69 232.325 1473.16 232.325C1472.2 232.325 1470.7 232.579 1469.06 232.856C1465.28 233.493 1460.78 234.253 1460.45 232.325C1460.15 230.505 1456.11 230.339 1452.59 230.195C1450.76 230.12 1449.08 230.051 1448.12 229.76C1446.26 229.193 1444.85 229.381 1443.42 229.569C1442.71 229.665 1441.99 229.76 1441.21 229.76C1439.89 229.76 1439.88 230.805 1439.87 231.717C1439.86 232.423 1439.86 233.05 1439.25 233.05C1438.65 233.05 1437.99 233.696 1437.23 234.442C1436.19 235.462 1434.96 236.668 1433.45 236.668C1431.36 236.668 1430.46 237.896 1430.28 238.511C1428.84 238.84 1425.51 239.487 1423.64 239.434C1422.64 239.406 1422.53 240.121 1422.41 240.946C1422.25 242.038 1422.06 243.321 1419.72 243.321C1416.43 243.321 1417.04 246 1417.76 247.339C1417.04 248.634 1415.61 251.987 1415.61 255.041C1415.61 257.528 1417.31 258.675 1418.27 259.317C1418.78 259.661 1419.08 259.86 1418.78 260.044C1418.11 260.465 1417.82 262.152 1417.76 262.942C1418.53 263.864 1419.62 265.996 1417.76 267.154C1415.89 268.313 1416.54 270.313 1417.1 271.168C1417.16 274.087 1416.95 279.938 1415.61 279.991C1413.93 280.057 1412.8 282.233 1412.71 283.944C1412.64 285.313 1409.32 288.154 1407.67 289.403C1406.48 289.558 1403.87 290.406 1402.9 292.565C1402.13 294.267 1403.89 295.576 1404.97 296.377C1405.6 296.846 1406 297.14 1405.52 297.238C1404.21 297.501 1405.98 299.671 1408.69 300.329C1410.48 300.763 1408.08 306.154 1406.13 310.529C1405.13 312.785 1404.24 314.771 1404.11 315.667C1403.93 316.971 1404.66 317.678 1405.25 318.251C1405.86 318.837 1406.32 319.283 1405.52 320.08C1405.02 320.576 1404.7 320.969 1404.46 321.275C1403.92 321.946 1403.71 322.208 1402.62 322.253C1401.03 322.319 1395.24 325.149 1395.24 327.321C1395.24 329.493 1389.83 331.461 1388.54 331.562C1387.5 331.643 1384.51 337.408 1383.14 340.28L1380.33 341.664C1379.86 342.652 1378.93 345.616 1378.93 349.565L1375.56 356.387L1374.02 362.316L1372.76 365.87L1371.36 369.826L1370.28 376.472Z"
    fill="url(#paint8_linear_646_2905)" />
  <path
    d="M317.813 389.107C318.692 388.324 319.601 387.928 320.542 387.91C321.286 387.884 322.383 388.729 323.824 390.442C324.562 391.314 325.888 393.101 327.813 395.805C329.491 398.163 330.703 399.718 331.453 400.468C332.586 401.601 333.322 401.736 333.661 400.873C334.01 399.97 334.06 399.142 333.803 398.398C333.608 397.791 333.164 397.132 332.466 396.424C331.538 395.573 330.808 394.903 330.277 394.409C329.29 393.505 328.486 392.646 327.875 391.83C327.138 390.843 326.575 389.719 326.186 388.465C325.806 387.25 325.433 385.537 325.486 384.432C325.541 383.263 326.54 381.83 327.035 381.104C327.576 380.307 327.814 380.883 328.77 380.753C330.547 380.528 331.527 381.658 332.399 383.167C333.048 384.298 333.692 385.138 333.653 386.647C333.63 387.225 333.853 388.17 334.314 389.47C334.789 390.817 335.365 392.118 336.048 393.379C336.817 394.802 337.566 395.84 338.298 396.505C339.149 397.288 339.891 397.461 340.521 397.025C341.133 396.6 341.415 395.847 341.379 394.758C341.336 393.963 341.081 392.756 340.611 391.143C339.525 388.634 339.799 387.11 339.717 386.798C339.28 385.031 338.373 383.655 338.391 382.392C338.409 381.014 338.518 379.387 339.16 378.566C339.723 377.843 341.212 377.019 342.102 376.902C342.935 376.78 343.521 377.42 344.277 377.882C345.051 378.374 345.589 379.379 345.876 380.263C346.131 381.07 346.425 382.342 346.372 384.074C346.335 384.989 345.805 386.728 345.606 389.029C345.433 391.023 345.301 391.96 345.323 392.755C345.346 393.945 345.825 394.888 346.218 394.933C348.449 396.026 350.326 390.961 351.079 384.657C351.094 382.457 352.49 380.072 353.904 379.126C355.35 378.158 355.807 378.916 357.289 380.062C357.976 380.604 358.93 381.583 358.491 382.961C358.143 384.048 357.93 385.464 356.787 387.294C356.135 388.339 354.855 389.125 353.466 391.202C352.14 392.626 351.699 394.525 351.394 395.325C351.024 396.301 350.598 396.796 350.804 397.458C351.136 398.523 351.816 398.927 352.399 398.872C353.045 398.819 353.742 398.334 354.497 397.411C355.387 396.342 356.222 394.806 357.005 392.808C357.808 390.762 358.652 388.852 359.704 387.654C360.639 386.577 361.707 386.191 362.73 385.916C363.663 385.659 364.496 385.437 365.28 385.891C366.041 386.338 366.77 387.308 367.141 388.268C367.464 389.135 366.927 390.261 366.286 391.362C365.807 392.182 364.942 393.481 363.745 394.671C362.351 395.984 361.505 396.439 360.907 397.063C359.896 398.114 359.078 398.952 358.887 399.626C358.678 400.383 359.061 401.187 359.377 401.737C359.682 402.269 360.15 402.556 360.78 402.599C361.449 402.652 362.106 402.408 362.751 401.86C363.509 401.233 363.844 399.588 364.36 398.332C365.391 395.761 366.853 394.654 368.12 393.837C369.306 393.086 370.311 394.041 371.065 395.044C371.441 395.532 371.019 397.692 370.815 399.04C370.586 400.46 370.551 400.018 369.841 401.368C369.012 402.922 367.527 404.539 366.34 405.352C364.931 406.299 363.019 407.486 360.973 406.314C358.814 405.922 358.292 405.257 357.585 405.377C356.163 405.631 355.367 406.249 354.864 408.009C354.146 410.04 354.484 414.225 355.756 416.624C356.099 417.534 356.589 418.616 357.226 419.87C359.882 425.925 361.273 439.223 358.664 432.364L344.277 432.661C345.228 430.914 348.116 415.757 348.193 413.937C348.286 411.906 347.823 409.948 346.805 408.052C346.006 406.568 345.145 406.767 343.801 406.222C343.172 405.969 341.882 405.47 341.063 405.465C340.496 405.477 340.044 404.726 338.989 404.891C336.362 405.296 334.324 405.438 332.881 405.312C330.13 405.083 327.29 404.109 324.361 402.394C321.252 400.567 319.008 398.711 317.634 396.832C316.491 395.238 315.998 393.713 316.156 392.247C316.291 391.016 316.843 389.97 317.815 389.118L317.813 389.107Z"
    fill="url(#paint9_linear_646_2905)" stroke="black" />
  <g style="mix-blend-mode:multiply">
    <path
      d="M348.725 432.13C348.705 435.191 379.454 437.496 312.709 437.496C297.958 437.4 286.016 434.841 286.036 431.78C286.056 428.72 298.031 426.318 312.782 426.414C327.533 426.511 348.745 429.07 348.725 432.13Z"
      fill="#5945FE" fill-opacity="0.24" />
  </g>
  <g style="mix-blend-mode:multiply">
    <ellipse cx="352.116" cy="435.94" rx="24.4362" ry="3.34741" transform="rotate(0.37548 352.116 435.94)"
      fill="#5945FE" fill-opacity="0.24" />
  </g>
  <path
    d="M332.886 430.523C333.071 430.636 332.107 430.863 331.673 431.093C331.534 431.166 331.372 431.26 331.216 431.26H322.96C319.892 431.26 318.787 430.449 306.531 430.497C302.796 430.512 294.797 430.513 291.125 430.498C291.033 430.497 290.948 430.462 290.881 430.398L288.1 427.765C288.002 427.672 287.96 427.532 287.99 427.398L288.395 425.58C288.481 425.281 289.03 424.466 290.532 423.594C292.411 422.503 290.986 422.77 290.986 420.832C290.986 419.282 291.633 418.38 291.957 418.122L294.543 416.261C294.642 416.19 294.702 416.074 294.723 415.951C294.832 415.336 295.292 413.892 295.292 413.45C295.292 413.034 295.86 412.715 296.286 412.552C296.426 412.498 296.532 412.373 296.55 412.22L296.73 410.694C296.773 410.329 297.048 409.455 297.801 408.876C298.542 408.306 299.952 407.349 300.594 406.921C300.614 406.908 300.633 406.893 300.65 406.875L301.436 406.092C301.469 406.058 301.509 406.032 301.552 406.014L302.453 405.631L304.096 404.7C304.15 404.669 304.211 404.653 304.273 404.653L305.908 404.653C306.322 404.653 307.119 404.652 307.459 404.893C307.543 404.953 307.63 405.02 307.731 405.039L316.998 406.749C317.101 406.768 317.207 406.74 317.303 406.699C317.552 406.593 318.077 406.465 318.963 406.465C320.374 406.465 320.479 408.127 320.897 407.404C321.315 406.681 323.014 408.01 323.511 408.01C323.851 408.01 323.73 408.803 323.584 409.371C323.544 409.529 323.598 409.698 323.71 409.813C324.376 410.496 324.995 411.949 325.49 412.12C325.862 412.249 325.831 412.592 325.701 412.892C325.612 413.099 325.65 413.359 325.832 413.485C326.089 413.664 326.442 413.918 326.823 414.213C327.393 414.654 327.823 415.567 327.996 416.043C328.016 416.098 328.046 416.148 328.087 416.191C328.509 416.633 329.315 417.621 329.593 418.514C329.839 419.302 329.979 419.833 330.039 420.084C330.056 420.157 330.091 420.224 330.143 420.276L331.413 421.561C331.454 421.603 331.503 421.633 331.557 421.653C332.047 421.834 332.886 422.29 332.886 422.896C332.886 423.698 333.357 423.347 334.429 424.578C335.5 425.81 334.664 426.904 334.794 427.334C334.925 427.764 333.148 428.294 333.514 428.704C333.88 429.115 332.599 430.347 332.886 430.523Z"
    fill="#D5DABB" stroke="black" />
  <g style="mix-blend-mode:multiply">
    <path
      d="M328.539 430.557C328.706 430.665 327.836 430.881 327.444 431.101C327.318 431.171 327.172 431.26 327.031 431.26H319.574C316.803 431.26 315.804 430.486 304.735 430.533C301.362 430.547 294.137 430.548 290.82 430.533C290.738 430.533 290.661 430.499 290.6 430.438L288.088 427.928C288 427.839 287.962 427.706 287.989 427.578L288.355 425.845C288.433 425.56 288.928 424.783 290.285 423.951C291.982 422.912 290.695 423.166 290.695 421.319C290.695 419.841 291.279 418.981 291.571 418.735L293.907 416.961C293.997 416.893 294.051 416.782 294.07 416.665C294.168 416.079 294.584 414.702 294.584 414.281C294.584 413.884 295.097 413.58 295.482 413.425C295.608 413.374 295.704 413.254 295.72 413.108L295.882 411.654C295.922 411.306 296.17 410.472 296.85 409.92C297.519 409.377 298.793 408.465 299.373 408.057C299.391 408.044 299.408 408.03 299.423 408.013L300.133 407.266C300.163 407.234 300.199 407.209 300.238 407.192L301.052 406.827L302.535 405.939C302.584 405.91 302.639 405.894 302.695 405.894L304.172 405.894C304.546 405.894 305.266 405.894 305.573 406.123C305.649 406.181 305.727 406.244 305.819 406.262L314.189 407.892C314.282 407.91 314.378 407.884 314.465 407.845C314.689 407.744 315.164 407.622 315.963 407.622C317.238 407.622 317.333 409.207 317.71 408.517C318.088 407.828 319.622 409.095 320.071 409.095C320.378 409.095 320.269 409.851 320.137 410.392C320.101 410.543 320.15 410.704 320.252 410.814C320.852 411.465 321.412 412.85 321.859 413.013C322.195 413.136 322.167 413.463 322.049 413.749C321.969 413.946 322.004 414.194 322.168 414.314C322.4 414.485 322.718 414.727 323.063 415.008C323.578 415.429 323.966 416.3 324.122 416.753C324.14 416.806 324.168 416.853 324.204 416.894C324.586 417.315 325.313 418.257 325.565 419.108C325.787 419.86 325.914 420.366 325.967 420.605C325.983 420.675 326.015 420.739 326.062 420.789L327.208 422.014C327.245 422.053 327.29 422.082 327.339 422.101C327.781 422.274 328.539 422.709 328.539 423.286C328.539 424.051 328.964 423.716 329.932 424.89C330.9 426.064 330.144 427.108 330.263 427.518C330.381 427.928 328.775 428.432 329.106 428.824C329.436 429.215 328.28 430.389 328.539 430.557Z"
      fill="#C6D973" />
  </g>
  <path
    d="M358.57 434.902C358.771 434.986 357.422 435.174 357.338 435.342H349.906C347.228 435.342 346.263 435.313 342.136 435.342C338.835 435.365 331.715 435.351 328.568 435.342L325.911 433.62L326.307 432.404C326.382 432.226 326.861 431.739 328.173 431.218C329.812 430.567 328.568 430.726 328.568 429.568C328.568 428.642 329.133 428.103 329.416 427.949L331.811 426.77V425.661C331.811 425.362 332.526 425.147 332.883 425.077L333.066 424.014C333.104 423.796 333.344 423.274 334.001 422.928C334.658 422.582 335.917 421.998 336.465 421.749L337.218 421.235L338.062 420.989L339.567 420.405H341.05C341.452 420.405 341.947 420.841 342.145 421.059H344.038C344.153 420.997 344.627 420.872 345.613 420.872C346.844 420.872 346.936 421.865 347.301 421.433C347.666 421.001 349.148 421.795 349.582 421.795C349.929 421.795 349.726 422.442 349.582 422.765C350.228 423.099 351.64 423.796 352.114 423.908C352.589 424.021 352.312 424.407 352.114 424.585C352.281 424.66 352.748 424.878 353.278 425.159C353.807 425.439 354.198 426.038 354.327 426.302C354.677 426.544 355.44 427.167 355.696 427.728C355.951 428.288 356.076 428.631 356.106 428.733L357.338 429.586C357.749 429.68 358.57 429.963 358.57 430.346C358.57 430.825 358.981 430.615 359.916 431.351C360.851 432.086 360.121 432.74 360.235 432.997C360.349 433.254 358.798 433.57 359.117 433.815C359.437 434.061 358.319 434.796 358.57 434.902Z"
    fill="#D8C0D6" stroke="black" />
  <g style="mix-blend-mode:multiply">
    <path
      d="M355.054 434.902C355.233 434.986 354.029 435.174 353.954 435.342H347.323C344.933 435.342 344.072 435.313 340.389 435.342C337.443 435.365 331.09 435.351 328.282 435.342L325.911 433.62L326.264 432.404C326.332 432.226 326.759 431.739 327.929 431.218C329.392 430.567 328.282 430.726 328.282 429.568C328.282 428.642 328.786 428.103 329.038 427.949L331.176 426.77V425.661C331.176 425.362 331.814 425.147 332.133 425.077L332.295 424.014C332.329 423.796 332.544 423.274 333.13 422.928C333.716 422.582 334.84 421.998 335.328 421.749L336 421.235L336.753 420.989L338.097 420.405H339.42C339.778 420.405 340.221 420.841 340.397 421.059H342.087C342.188 420.997 342.612 420.872 343.491 420.872C344.591 420.872 344.672 421.865 344.998 421.433C345.323 421.001 346.646 421.795 347.033 421.795C347.343 421.795 347.162 422.442 347.033 422.765C347.61 423.099 348.869 423.796 349.293 423.908C349.716 424.021 349.469 424.407 349.293 424.585C349.442 424.66 349.859 424.878 350.331 425.159C350.803 425.439 351.152 426.038 351.267 426.302C351.579 426.544 352.261 427.167 352.489 427.728C352.717 428.288 352.828 428.631 352.855 428.733L353.954 429.586C354.321 429.68 355.054 429.963 355.054 430.346C355.054 430.825 355.42 430.615 356.255 431.351C357.089 432.086 356.438 432.74 356.54 432.997C356.641 433.254 355.257 433.57 355.542 433.815C355.827 434.061 354.83 434.796 355.054 434.902Z"
      fill="#DDA8D6" />
  </g>
  <g style="mix-blend-mode:multiply">
    <path
      d="M776.03 450.556C773.581 452.1 764.929 445.335 760.908 441.76L842.138 440.044C848.498 441.116 843.898 440.989 855.996 445.279C871.118 450.643 844.243 455.45 828.028 455.45C809.679 455.45 828.636 457.635 810.094 459.137C804.297 459.137 796.132 451.771 784.131 448.41C782.451 448.482 778.478 449.011 776.03 450.556Z"
      fill="#5945FE" fill-opacity="0.24" />
  </g>
  <path
    d="M763.9 435.88C761.391 435.986 759.206 438.594 758.428 439.884C757.493 442.621 762.832 442.487 763.9 443.421C764.968 444.356 767.037 443.822 768.372 443.421C769.707 443.021 773.609 443.695 776.145 444.029C778.681 444.362 777.79 444.874 779.517 444.689C780.757 444.689 788.327 443.021 789.195 442.487C790.062 441.953 790.062 440.818 788.661 439.283C787.539 438.055 786.458 436.503 786.058 435.88C785.168 435.212 783.028 433.717 781.586 433.077C780.145 432.436 778.049 433.744 777.181 434.478C776.781 434.278 775.406 433.717 773.11 433.077C770.24 432.276 769.239 433.277 767.037 433.878C764.835 434.478 767.037 435.746 763.9 435.88Z"
    fill="#32AE98" stroke="black" />
  <path
    d="M827.77 444.964C827.731 444.98 827.7 444.994 827.676 445.006L827.596 445.216H827.252H817.744C816.803 445.216 816.027 445.213 815.114 445.208C812.701 445.197 809.331 445.181 799.402 445.216C795.178 445.231 786.069 445.233 782.042 445.216L781.859 445.216L781.72 445.097L778.321 442.204L778.085 442.003L778.16 441.703L778.666 439.66L778.67 439.644L778.675 439.627C778.762 439.358 779.011 439.008 779.409 438.635C779.822 438.247 780.434 437.799 781.306 437.343C781.767 437.103 781.99 436.957 782.092 436.867C782.079 436.844 782.064 436.817 782.046 436.787C781.884 436.513 781.544 435.935 781.544 435.015C781.544 433.307 782.337 432.246 782.837 431.888L782.847 431.881L782.856 431.875L785.692 430.041V428.449C785.692 428.163 785.823 427.934 785.965 427.771C786.107 427.609 786.285 427.482 786.453 427.383C786.666 427.258 786.901 427.158 787.109 427.084L787.301 425.617L787.301 425.616C787.364 425.141 787.729 424.123 788.709 423.446C789.549 422.866 791.127 421.902 791.847 421.471L792.774 420.64L792.843 420.578L792.93 420.545L793.985 420.142L795.887 419.173L795.994 419.118H796.114H798.011H798.011L798.044 419.118L798.053 419.118C798.314 419.118 798.741 419.118 799.139 419.166C799.34 419.191 799.555 419.23 799.747 419.297C799.86 419.336 799.997 419.396 800.121 419.49L810.13 420.208C810.288 420.137 810.493 420.077 810.729 420.03C811.094 419.957 811.595 419.902 812.252 419.902C813.259 419.902 813.808 420.455 814.124 420.817C814.14 420.836 814.155 420.853 814.169 420.868C814.43 420.643 814.769 420.612 815.032 420.636C815.361 420.666 815.717 420.789 816.025 420.913C816.224 420.994 816.437 421.089 816.627 421.174C816.728 421.219 816.822 421.262 816.904 421.297C817.032 421.352 817.137 421.395 817.221 421.423C817.301 421.449 817.333 421.453 817.333 421.453C817.333 421.453 817.332 421.453 817.33 421.453C817.496 421.453 817.661 421.508 817.795 421.625C817.919 421.735 817.984 421.87 818.019 421.979C818.086 422.189 818.081 422.424 818.063 422.612C818.039 422.862 817.98 423.135 817.915 423.375C818.307 423.635 818.809 423.961 819.293 424.258C819.604 424.449 819.904 424.625 820.161 424.764C820.428 424.909 820.617 424.996 820.717 425.027C820.963 425.103 821.179 425.25 821.303 425.487C821.422 425.714 821.417 425.949 821.382 426.129C821.357 426.251 821.315 426.37 821.263 426.48C821.552 426.662 821.933 426.91 822.343 427.195C822.761 427.486 823.098 427.919 823.343 428.31C823.558 428.65 823.722 428.989 823.823 429.238C824.064 429.465 824.394 429.812 824.712 430.213C825.066 430.66 825.432 431.209 825.623 431.758C825.889 432.525 826.048 433.061 826.124 433.342L827.507 434.601C827.796 434.698 828.179 434.861 828.514 435.085C828.859 435.315 829.327 435.726 829.327 436.321C829.327 436.417 829.338 436.458 829.342 436.47C829.348 436.476 829.376 436.503 829.495 436.574C829.522 436.59 829.551 436.607 829.582 436.625C829.871 436.793 830.322 437.056 830.908 437.662C831.629 438.407 831.726 439.152 831.643 439.762C831.611 439.998 831.551 440.218 831.507 440.378C831.499 440.409 831.491 440.437 831.484 440.463C831.46 440.553 831.448 440.608 831.443 440.646C831.443 440.649 831.443 440.651 831.443 440.653C831.51 440.897 831.417 441.105 831.331 441.228C831.245 441.352 831.129 441.449 831.034 441.518C830.865 441.643 830.643 441.766 830.458 441.869C830.434 441.882 830.411 441.895 830.388 441.908C830.254 441.983 830.147 442.045 830.066 442.097C830.15 442.361 830.068 442.628 830.009 442.774C829.914 443.009 829.752 443.25 829.621 443.438C829.584 443.491 829.55 443.54 829.518 443.585C829.442 443.693 829.379 443.782 829.332 443.858C829.339 443.882 829.344 443.908 829.348 443.935C829.383 444.183 829.238 444.344 829.191 444.392C829.091 444.491 828.957 444.548 828.9 444.573C828.757 444.633 828.554 444.698 828.369 444.757C828.356 444.761 828.342 444.766 828.328 444.77C828.118 444.838 827.92 444.902 827.77 444.964ZM813.966 421.108C813.966 421.108 813.967 421.107 813.969 421.106C813.967 421.107 813.966 421.108 813.966 421.108ZM829.344 436.474C829.344 436.474 829.344 436.473 829.342 436.471C829.343 436.473 829.344 436.474 829.344 436.474ZM831.442 440.668C831.442 440.668 831.442 440.667 831.442 440.666C831.442 440.667 831.442 440.668 831.442 440.668ZM829.918 442.211C829.918 442.211 829.919 442.21 829.922 442.207C829.919 442.21 829.918 442.211 829.918 442.211ZM827.625 445.034C827.617 445.039 827.614 445.042 827.614 445.042C827.614 445.042 827.618 445.039 827.625 445.034Z"
    fill="url(#paint10_linear_646_2905)" stroke="black" />
  <path fill-rule="evenodd" clip-rule="evenodd"
    d="M828.207 444.284C828.607 444.156 828.952 444.046 828.827 443.977C828.685 443.898 828.887 443.611 829.121 443.28C829.387 442.903 829.693 442.469 829.576 442.221C829.464 442.291 829.337 442.361 829.21 442.431C828.766 442.676 828.324 442.92 828.536 443.132C828.759 443.355 828.424 443.827 828.137 444.231C828.114 444.264 828.09 444.297 828.068 444.329C828.114 444.314 828.161 444.299 828.207 444.284ZM779.074 442.188C778.884 441.78 778.833 441.312 778.946 440.859L779.141 440.077C779.236 439.785 779.836 438.988 781.481 438.135C782.454 437.631 782.617 437.424 782.52 437.145C782.381 437.309 782.085 437.501 781.538 437.787C779.86 438.662 779.247 439.481 779.151 439.781L778.645 441.823L779.074 442.188ZM782.068 434.533C782.27 433.565 782.763 432.983 783.04 432.786L785.126 431.447C785.517 431.195 785.833 430.821 786.055 430.401L783.128 432.295C782.806 432.525 782.196 433.271 782.068 434.533ZM786.192 430.109C786.234 430.006 786.271 429.902 786.302 429.797C786.316 429.749 786.33 429.7 786.344 429.652C786.514 429.079 786.692 428.476 786.692 428.219C786.692 428.094 786.751 427.977 786.846 427.872C786.917 427.792 786.992 427.714 787.068 427.636C786.642 427.814 786.192 428.097 786.192 428.449V430.109ZM787.616 427.064C787.913 426.728 788.155 426.367 788.213 425.922L788.266 425.524C788.313 425.167 788.615 424.313 789.439 423.747C790.202 423.223 791.615 422.362 792.364 421.915C792.474 421.849 792.577 421.774 792.673 421.689L793.197 421.221C793.38 421.059 793.59 420.931 793.819 420.845L794.532 420.574L795.994 419.834C796.275 419.692 796.584 419.618 796.898 419.618L798.133 419.618C798.102 419.618 798.072 419.618 798.044 419.618L798.011 419.618H796.114L794.188 420.6L793.108 421.012L792.145 421.875C791.445 422.294 789.834 423.276 788.993 423.857C788.153 424.438 787.846 425.316 787.797 425.682L787.616 427.064ZM800.64 420.029L810.238 420.717C810.384 420.612 810.991 420.402 812.252 420.402C813.113 420.402 813.538 420.9 813.823 421.234C814.06 421.511 814.199 421.674 814.411 421.345C814.719 420.866 815.65 421.284 816.406 421.623C816.797 421.799 817.141 421.953 817.33 421.953C817.773 421.953 817.514 423.04 817.33 423.583C818.156 424.145 819.962 425.316 820.569 425.505C821.176 425.693 820.822 426.342 820.569 426.642C820.783 426.767 821.38 427.134 822.057 427.605C822.734 428.076 823.234 429.083 823.399 429.527C823.847 429.933 824.824 430.98 825.15 431.922C825.477 432.864 825.637 433.44 825.676 433.611L827.251 435.045C827.777 435.202 828.827 435.678 828.827 436.321C828.827 436.764 828.986 436.856 829.328 437.056C829.608 437.219 830.011 437.453 830.549 438.01C831.395 438.884 831.176 439.689 831.027 440.238C830.965 440.466 830.915 440.65 830.958 440.776C831.026 440.98 830.62 441.207 830.215 441.432C830.117 441.486 830.02 441.54 829.929 441.594C829.942 441.5 829.972 441.391 830.006 441.269C830.152 440.734 830.367 439.949 829.537 439.098C829.009 438.556 828.615 438.328 828.34 438.169C828.005 437.975 827.849 437.885 827.849 437.454C827.849 436.973 827.244 436.589 826.729 436.366C826.455 436.248 826.189 436.106 825.968 435.906L825.226 435.236C824.922 434.961 824.708 434.6 824.587 434.208C824.505 433.94 824.392 433.593 824.244 433.169C823.993 432.452 823.354 431.672 822.877 431.177C822.654 430.946 822.473 430.677 822.329 430.391C822.09 429.915 821.697 429.3 821.211 428.965C821.104 428.89 820.998 428.819 820.897 428.751C820.624 428.568 820.503 428.205 820.384 427.847C820.247 427.435 820.113 427.03 819.752 426.919C819.733 426.913 819.71 426.906 819.685 426.898C819.172 426.74 817.445 426.209 816.142 425.718C815.604 425.515 815.451 425.022 815.287 424.493C815.194 424.191 815.097 423.877 814.922 423.599C814.883 423.538 814.827 423.503 814.748 423.503C814.563 423.503 814.225 423.352 813.843 423.182C813.618 423.082 813.379 422.975 813.145 422.887C813.077 422.861 813.003 422.834 812.924 422.805C812.276 422.565 811.322 422.213 810.865 421.823C810.708 421.689 810.565 421.672 810.386 421.651C810.335 421.645 810.281 421.639 810.222 421.629L800.97 420.104C800.86 420.086 800.75 420.06 800.64 420.029Z"
    fill="#24A0DD" />
  <g style="mix-blend-mode:multiply">
    <path
      d="M720.08 438.032C725.592 434.903 727.829 434.37 726.029 433.19L740.168 438.032L724.539 446.225L694 444.549C701.883 444.549 714.568 441.16 720.08 438.032Z"
      fill="#9FD3EC" />
  </g>
  <g style="mix-blend-mode:multiply">
    <path
      d="M1223.62 427.583C1220.67 427.583 1219.25 424.369 1218.9 422.762L1223.62 420.608H1264.04C1265.92 419.992 1271.95 419.439 1281.06 422.146C1292.45 425.531 1261.27 427.583 1250.29 427.583H1223.62Z"
      fill="#5945FE" fill-opacity="0.24" />
  </g>
  <path
    d="M1218.42 422.593C1218.21 422.689 1219.32 422.881 1219.82 423.077C1219.98 423.139 1220.17 423.219 1220.35 423.219H1229.87C1233.42 423.219 1234.69 422.53 1248.84 422.571C1253.15 422.583 1262.38 422.584 1266.62 422.571C1266.72 422.571 1266.82 422.541 1266.9 422.486L1270.11 420.25C1270.22 420.171 1270.27 420.052 1270.23 419.938L1269.77 418.394C1269.67 418.14 1269.03 417.447 1267.3 416.707C1265.13 415.781 1266.78 416.007 1266.78 414.361C1266.78 413.044 1266.03 412.278 1265.66 412.059L1262.67 410.479C1262.56 410.418 1262.49 410.319 1262.46 410.215C1262.34 409.692 1261.81 408.466 1261.81 408.091C1261.81 407.737 1261.15 407.466 1260.66 407.328C1260.5 407.282 1260.37 407.176 1260.35 407.045L1260.15 405.75C1260.1 405.44 1259.78 404.697 1258.91 404.205C1258.06 403.721 1256.43 402.908 1255.69 402.545C1255.66 402.534 1255.64 402.521 1255.62 402.506L1254.72 401.841C1254.68 401.812 1254.63 401.79 1254.58 401.774L1253.54 401.449L1251.65 400.658C1251.58 400.632 1251.51 400.618 1251.44 400.618L1249.56 400.618C1249.08 400.618 1248.16 400.618 1247.77 400.822C1247.67 400.873 1247.57 400.93 1247.45 400.946L1236.76 402.399C1236.64 402.415 1236.51 402.391 1236.4 402.357C1236.12 402.267 1235.51 402.157 1234.49 402.157C1232.86 402.157 1232.74 403.569 1232.26 402.955C1231.77 402.341 1229.81 403.47 1229.24 403.47C1228.85 403.47 1228.99 404.144 1229.15 404.626C1229.2 404.76 1229.14 404.903 1229.01 405.001C1228.24 405.581 1227.53 406.816 1226.96 406.961C1226.53 407.07 1226.56 407.362 1226.71 407.617C1226.81 407.792 1226.77 408.013 1226.56 408.12C1226.26 408.272 1225.86 408.488 1225.42 408.739C1224.76 409.113 1224.26 409.889 1224.06 410.293C1224.04 410.34 1224.01 410.383 1223.96 410.419C1223.47 410.794 1222.54 411.633 1222.22 412.392C1221.94 413.062 1221.77 413.513 1221.71 413.725C1221.69 413.787 1221.64 413.844 1221.58 413.889L1220.12 414.981C1220.07 415.016 1220.02 415.042 1219.95 415.059C1219.39 415.212 1218.42 415.6 1218.42 416.114C1218.42 416.795 1217.88 416.497 1216.64 417.543C1215.4 418.589 1216.37 419.519 1216.22 419.884C1216.07 420.25 1218.12 420.699 1217.7 421.048C1217.27 421.397 1218.75 422.443 1218.42 422.593Z"
    fill="#B3BE87" stroke="black" />
  <g style="mix-blend-mode:multiply">
    <path
      d="M1226.09 422.623C1225.91 422.715 1226.86 422.898 1227.28 423.084C1227.42 423.143 1227.58 423.218 1227.73 423.218H1235.85C1238.87 423.218 1239.96 422.563 1252.01 422.603C1255.68 422.614 1263.54 422.616 1267.15 422.603C1267.24 422.603 1267.33 422.574 1267.39 422.522L1270.13 420.396C1270.22 420.321 1270.26 420.207 1270.24 420.099L1269.84 418.631C1269.75 418.389 1269.21 417.731 1267.74 417.026C1265.89 416.146 1267.29 416.361 1267.29 414.796C1267.29 413.544 1266.65 412.815 1266.33 412.607L1263.79 411.104C1263.69 411.047 1263.64 410.952 1263.61 410.853C1263.51 410.356 1263.06 409.19 1263.06 408.833C1263.06 408.497 1262.5 408.239 1262.08 408.108C1261.94 408.064 1261.84 407.963 1261.82 407.839L1261.64 406.607C1261.6 406.312 1261.33 405.606 1260.59 405.139C1259.86 404.678 1258.47 403.905 1257.84 403.56C1257.82 403.549 1257.8 403.537 1257.79 403.523L1257.02 402.89C1256.98 402.863 1256.94 402.841 1256.9 402.827L1256.01 402.517L1254.4 401.765C1254.35 401.741 1254.29 401.728 1254.23 401.728L1252.62 401.728C1252.21 401.727 1251.43 401.727 1251.09 401.922C1251.01 401.97 1250.92 402.024 1250.83 402.039L1241.71 403.42C1241.61 403.436 1241.51 403.414 1241.41 403.381C1241.17 403.295 1240.65 403.191 1239.78 403.191C1238.39 403.191 1238.29 404.534 1237.88 403.95C1237.47 403.365 1235.8 404.439 1235.31 404.439C1234.98 404.439 1235.09 405.08 1235.24 405.539C1235.28 405.666 1235.22 405.802 1235.11 405.895C1234.46 406.447 1233.85 407.621 1233.36 407.759C1233 407.863 1233.03 408.141 1233.16 408.383C1233.24 408.55 1233.21 408.76 1233.03 408.862C1232.78 409.006 1232.43 409.211 1232.05 409.449C1231.49 409.806 1231.07 410.543 1230.9 410.927C1230.88 410.972 1230.85 411.013 1230.81 411.047C1230.4 411.404 1229.6 412.202 1229.33 412.923C1229.09 413.56 1228.95 413.989 1228.89 414.191C1228.88 414.25 1228.84 414.305 1228.79 414.347L1227.54 415.385C1227.5 415.418 1227.45 415.443 1227.4 415.459C1226.92 415.605 1226.09 415.974 1226.09 416.463C1226.09 417.11 1225.63 416.827 1224.58 417.822C1223.52 418.817 1224.34 419.701 1224.22 420.048C1224.09 420.395 1225.84 420.823 1225.48 421.155C1225.12 421.486 1226.37 422.481 1226.09 422.623Z"
      fill="#C8EC2C" />
  </g>
  <path
    d="M1017.09 29.8297C1039.36 8.6011 1068.24 21.9874 1079.89 31.3341C1068.56 22.3494 1056.13 22.1271 1051.33 23.1391C1049.94 23.3452 1061.33 41.6144 1062.09 45.0935C1062.69 47.8767 1058.86 53.6782 1056.87 56.2311L1061.61 61.1389C1058.59 64.4434 1052.27 71.0447 1051.18 71.0144C1050.08 70.984 1047.92 68.8631 1046.97 67.8065L1044.81 74.7762C1041.55 74.2946 1032.79 65.9263 1028.82 61.8023L1028 63.2203C1022.66 62.3912 1018.79 50.7747 1015.61 48.4161C1012.43 46.0575 1010.98 36.3596 1010.63 35.0136C1010.27 33.6677 1008.58 31.7957 1009.28 30.8109C1009.84 30.023 1014.72 29.8285 1017.09 29.8297Z"
    fill="#ABC475" stroke="black" />
  <path
    d="M1044.01 27.4041C1046.13 23.3855 1050.09 22.887 1051.8 23.1401C1051.69 25.1698 1051.01 30.1626 1049.17 33.8959C1046.88 38.5626 1050.84 55.253 1048.9 56.914C1047.35 58.2428 1047.08 64.6029 1047.14 67.6169L1044.95 74.0207C1033.82 59.3094 1041.37 32.4273 1044.01 27.4041Z"
    fill="black" stroke="black" />
  <path
    d="M1032.86 33.6176C1035.31 24.9916 1041.83 20.038 1044.79 18.6394C1035.95 18.9437 1032.43 23.3165 1029.49 26.2118C1027.14 28.5281 1019.74 42.2183 1016.27 48.9014C1017.37 50.2637 1018.04 51.452 1019.66 54.1385C1023.23 60.0516 1026.62 62.9795 1028.15 63.5454L1029 62.0853C1029.26 56.1902 1030.41 42.2435 1032.86 33.6176Z"
    fill="black" stroke="black" />
  <ellipse cx="46.5449" cy="11.2924" rx="46.5449" ry="11.2924"
    transform="matrix(-0.999875 0.0157985 0.0157985 0.999875 1152.41 463.933)" fill="black" />
  <g clip-path="url(#clip0_646_2905)">
    <path
      d="M1121.85 457.695L1121.85 457.695C1121.71 460.847 1120.68 464.012 1118.9 467.087C1117.12 470.19 1114.56 473.216 1111.41 475.98C1105.11 481.505 1096.51 485.889 1087.13 487.785C1077.75 489.681 1069.38 488.728 1063.42 485.662C1060.45 484.128 1058.08 482.069 1056.5 479.582C1054.91 477.09 1054.12 474.191 1054.26 471.005L1054.26 471.003C1054.27 470.894 1054.27 470.79 1054.28 470.678C1054.28 470.663 1054.28 470.647 1054.28 470.631L1054.29 470.621L1054.3 470.49C1054.31 470.359 1054.32 470.227 1054.33 470.084L1054.33 470.071L1054.33 470.059C1054.38 469.272 1054.45 467.605 1054.5 466.143C1054.53 465.411 1054.55 464.727 1054.57 464.226C1054.57 464.152 1054.57 464.083 1054.57 464.017L1055.97 463.753L1056.11 463.725L1056.24 463.449C1057.42 460.96 1059.11 458.489 1061.23 456.129C1063.35 453.771 1065.89 451.544 1068.76 449.539C1074.48 445.529 1081.48 442.425 1088.98 440.913L1088.98 440.913C1096.68 439.356 1103.71 439.72 1109.27 441.599C1114.83 443.48 1118.92 446.872 1120.77 451.341L1120.8 451.426L1120.88 451.411L1122.13 451.172L1121.85 457.695Z"
      fill="#D3F500" stroke="black" />
    <path
      d="M1122.19 450.507C1122.09 453.613 1121.09 456.801 1119.31 459.92C1117.53 463.04 1114.99 466.063 1111.86 468.818C1105.6 474.325 1097.03 478.717 1087.65 480.671C1078.27 482.625 1069.86 481.766 1063.87 478.811C1060.87 477.334 1058.48 475.338 1056.87 472.924C1055.26 470.511 1054.44 467.703 1054.53 464.596C1054.63 461.489 1055.63 458.302 1057.41 455.182C1059.19 452.062 1061.74 449.039 1064.87 446.285C1071.13 440.778 1079.69 436.386 1089.07 434.432C1098.46 432.478 1106.86 433.337 1112.86 436.291C1115.86 437.769 1118.25 439.765 1119.86 442.179C1121.47 444.592 1122.29 447.4 1122.19 450.507Z"
      fill="white" stroke="black" />
    <path
      d="M1115.53 452.06C1115.45 454.622 1114.62 457.258 1113.14 459.845C1111.67 462.433 1109.56 464.945 1106.95 467.234C1101.75 471.813 1094.63 475.466 1086.82 477.092C1079.02 478.717 1072.03 478.002 1067.04 475.546C1064.55 474.317 1062.56 472.659 1061.23 470.656C1059.89 468.655 1059.22 466.332 1059.3 463.77C1059.38 461.207 1060.2 458.571 1061.68 455.984C1063.16 453.396 1065.27 450.885 1067.87 448.595C1073.08 444.016 1080.2 440.363 1088 438.738C1095.81 437.112 1102.8 437.827 1107.78 440.284C1110.28 441.512 1112.26 443.17 1113.6 445.173C1114.93 447.175 1115.61 449.497 1115.53 452.06Z"
      fill="white" stroke="black" />
  </g>
  <g clip-path="url(#clip1_646_2905)">
    <path d="M1085.23 449.096L1067 463.466L1078.26 460.188L1085.23 449.096Z" fill="url(#paint11_linear_646_2905)" />
    <path d="M1085.54 467.13L1067 463.466L1078.26 460.188L1085.54 467.13Z" fill="url(#paint12_linear_646_2905)" />
    <path d="M1087.72 448.473L1080.58 459.441L1093.31 455.734L1087.72 448.473Z" fill="url(#paint13_linear_646_2905)" />
    <path d="M1093.31 455.735L1108.64 451.269L1087.72 448.473L1093.31 455.735Z" fill="url(#paint14_linear_646_2905)" />
    <path d="M1088.03 466.16L1080.58 459.441L1093.31 455.734L1088.03 466.16Z" fill="url(#paint15_linear_646_2905)" />
    <path d="M1093.31 455.734L1108.64 451.269L1088.03 466.159L1093.31 455.734Z" fill="url(#paint16_linear_646_2905)" />
  </g>
  <g clip-path="url(#clip2_646_2905)">
    <path
      d="M1106.27 436.193L1106.27 436.193C1106.98 437.414 1107.47 438.597 1107.79 439.726C1108.11 440.85 1108.29 442.003 1108.31 443.191C1108.35 445.602 1107.74 448.044 1106.5 450.328C1104.01 454.879 1099.09 458.628 1092.29 460.459C1085.51 462.289 1078.16 461.853 1071.77 459.672C1068.58 458.581 1065.63 457.056 1063.11 455.166C1060.59 453.27 1058.53 451.032 1057.12 448.569L1057.12 448.566C1057.08 448.507 1057.05 448.451 1057.02 448.392L1057.02 448.382L1056.9 448.17C1056.84 448.074 1056.79 447.977 1056.74 447.864L1056.73 447.847L1056.72 447.832C1056.37 447.209 1055.61 445.897 1054.94 444.753C1054.7 444.337 1054.47 443.941 1054.27 443.605L1055.09 443.397L1055.23 443.362L1055.18 442.961C1054.95 441.092 1055.12 439.143 1055.71 437.219C1056.3 435.306 1057.3 433.473 1058.68 431.799C1061.43 428.45 1065.67 425.762 1071.1 424.301L1071.1 424.301C1076.67 422.799 1082.62 422.824 1088.11 424.09C1093.6 425.357 1098.61 427.862 1102.31 431.293L1102.38 431.354L1102.43 431.341L1103.35 431.107L1106.27 436.193Z"
      fill="#D3F500" stroke="black" />
    <path
      d="M1102.96 430.299C1104.34 432.645 1105.06 435.125 1105.12 437.622C1105.18 440.116 1104.56 442.571 1103.33 444.841C1100.87 449.379 1095.98 453.132 1089.22 455.007C1082.46 456.882 1075.14 456.519 1068.77 454.43C1065.59 453.385 1062.66 451.913 1060.17 450.094C1057.68 448.271 1055.69 446.142 1054.31 443.797C1052.93 441.451 1052.2 438.971 1052.15 436.474C1052.09 433.979 1052.71 431.525 1053.94 429.255C1056.4 424.717 1061.29 420.964 1068.05 419.089C1074.81 417.214 1082.13 417.576 1088.5 419.666C1091.68 420.711 1094.61 422.182 1097.09 424.002C1099.58 425.825 1101.57 427.953 1102.96 430.299Z"
      fill="white" stroke="black" />
    <path
      d="M1098.24 431.761C1099.37 433.68 1099.97 435.721 1100.01 437.791C1100.06 439.858 1099.55 441.896 1098.53 443.783C1096.49 447.555 1092.41 450.676 1086.79 452.236C1081.17 453.796 1075.08 453.494 1069.79 451.757C1067.14 450.888 1064.71 449.666 1062.65 448.158C1060.59 446.647 1058.95 444.893 1057.82 442.974C1056.69 441.055 1056.09 439.014 1056.05 436.944C1056 434.877 1056.51 432.839 1057.53 430.952C1059.57 427.18 1063.65 424.059 1069.27 422.499C1074.89 420.939 1080.98 421.241 1086.27 422.978C1088.92 423.847 1091.35 425.069 1093.41 426.577C1095.47 428.088 1097.11 429.842 1098.24 431.761Z"
      fill="white" stroke="black" />
  </g>
  <g clip-path="url(#clip3_646_2905)">
    <path d="M1072.13 429.981L1063.63 443.101L1071.65 439.638L1072.13 429.981Z" fill="url(#paint17_linear_646_2905)" />
    <path d="M1081.31 444.911L1063.63 443.101L1071.65 439.638L1081.31 444.911Z" fill="url(#paint18_linear_646_2905)" />
    <path d="M1073.96 429.299L1073.27 438.866L1082.33 434.949L1073.96 429.299Z" fill="url(#paint19_linear_646_2905)" />
    <path d="M1082.33 434.949L1093.25 430.231L1073.96 429.299L1082.33 434.949Z" fill="url(#paint20_linear_646_2905)" />
    <path d="M1082.96 443.942L1073.27 438.866L1082.33 434.949L1082.96 443.942Z" fill="url(#paint21_linear_646_2905)" />
    <path d="M1082.33 434.949L1093.25 430.231L1082.96 443.942L1082.33 434.949Z" fill="url(#paint22_linear_646_2905)" />
  </g>
  <g clip-path="url(#clip4_646_2905)">
    <path
      d="M1081.22 378.596L1081.22 378.596C1085.56 380.13 1087.42 385.342 1086.78 392.73C1086.13 400.102 1082.99 409.532 1077.48 419.258C1071.98 428.984 1065.17 437.118 1058.64 442.412C1052.09 447.717 1045.93 450.096 1041.58 448.559L1041.58 448.558C1041.5 448.533 1041.43 448.505 1041.36 448.475C1041.34 448.47 1041.33 448.464 1041.32 448.459L1041.31 448.453L1041.23 448.422C1041.14 448.388 1041.06 448.349 1040.96 448.306L1040.96 448.302L1040.95 448.299C1040.41 448.092 1039.26 447.692 1038.24 447.347C1037.73 447.174 1037.25 447.013 1036.9 446.896C1036.85 446.877 1036.8 446.86 1036.75 446.844L1037.5 445.531L1037.67 445.246L1037.55 445.03C1035.67 441.632 1035.39 436.261 1036.7 429.753C1038.01 423.255 1040.9 415.669 1045.31 407.897L1045.31 407.897C1049.83 399.912 1055.23 392.998 1060.63 387.848C1066.05 382.691 1071.42 379.342 1075.92 378.406L1076.2 378.347L1076.37 378.058L1076.93 377.08L1081.22 378.596Z"
      fill="#D3F500" stroke="black" />
    <path
      d="M1076.38 376.877C1080.71 378.308 1082.58 383.427 1081.95 390.757C1081.33 398.069 1078.22 407.468 1072.75 417.209C1067.28 426.95 1060.52 435.14 1054.02 440.513C1047.51 445.898 1041.37 448.374 1037.04 446.943C1032.71 445.513 1030.84 440.393 1031.47 433.063C1032.09 425.751 1035.2 416.353 1040.67 406.612C1046.14 396.871 1052.9 388.68 1059.4 383.307C1065.91 377.922 1072.04 375.447 1076.38 376.877Z"
      fill="white" stroke="black" />
    <path
      d="M1072.6 383.859C1076.17 385.038 1077.72 389.263 1077.2 395.349C1076.68 401.418 1074.1 409.225 1069.56 417.32C1065.01 425.416 1059.39 432.219 1054 436.678C1048.59 441.15 1043.52 443.186 1039.95 442.007C1036.38 440.828 1034.83 436.603 1035.35 430.517C1035.86 424.448 1038.45 416.641 1042.99 408.546C1047.54 400.451 1053.16 393.648 1058.55 389.189C1063.96 384.717 1069.03 382.68 1072.6 383.859Z"
      fill="white" stroke="black" />
  </g>
  <g clip-path="url(#clip5_646_2905)">
    <path d="M1048.75 412.2L1045.36 432.089L1051.18 420.81L1048.75 412.2Z" fill="url(#paint23_linear_646_2905)" />
    <path d="M1060.98 415.144L1045.36 432.089L1051.18 420.81L1060.98 415.144Z" fill="url(#paint24_linear_646_2905)" />
    <path d="M1050.1 409.718L1052.33 418.475L1058.91 405.717L1050.1 409.718Z" fill="url(#paint25_linear_646_2905)" />
    <path d="M1058.91 405.716L1066.84 390.354L1050.1 409.718L1058.91 405.716Z" fill="url(#paint26_linear_646_2905)" />
    <path d="M1062.1 412.605L1052.33 418.475L1058.91 405.717L1062.1 412.605Z" fill="url(#paint27_linear_646_2905)" />
    <path d="M1058.91 405.716L1066.84 390.354L1062.1 412.605L1058.91 405.716Z" fill="url(#paint28_linear_646_2905)" />
  </g>
  <g clip-path="url(#clip6_646_2905)">
    <path
      d="M1017.2 327.748L1017.2 327.748C1021.72 328.253 1024.05 332.846 1024.03 340.057C1024.02 347.255 1021.67 356.971 1016.96 367.493C1012.25 378.015 1006.1 387.303 999.986 393.814C993.859 400.336 987.85 403.992 983.326 403.486L983.324 403.486C983.246 403.478 983.173 403.467 983.095 403.455C983.079 403.452 983.062 403.45 983.044 403.447L983.04 403.443L982.965 403.432C982.873 403.419 982.783 403.401 982.685 403.38L982.677 403.379L982.669 403.378C982.115 403.298 980.918 403.173 979.865 403.069C979.337 403.016 978.844 402.969 978.482 402.935C978.408 402.928 978.339 402.921 978.276 402.915L978.944 401.449L979.076 401.16L978.95 400.996C976.758 398.155 976.015 393.071 976.777 386.556C977.538 380.047 979.796 372.151 983.56 363.742L983.56 363.742C987.425 355.103 992.263 347.294 997.259 341.171C1002.26 335.039 1007.38 330.641 1011.83 328.746L1012.11 328.629L1012.25 328.32L1012.73 327.249L1017.2 327.748Z"
      fill="#D3F500" stroke="black" />
    <path
      d="M1012.19 327.182C1016.69 327.59 1019.02 332.087 1019.02 339.232C1019.02 346.364 1016.7 356.042 1012.03 366.569C1007.36 377.097 1001.26 386.432 995.181 393.014C989.091 399.609 983.115 403.355 978.613 402.948C974.11 402.541 971.788 398.044 971.788 390.898C971.788 383.766 974.109 374.088 978.774 363.561C983.44 353.034 989.545 343.698 995.624 337.116C1001.71 330.521 1007.69 326.775 1012.19 327.182Z"
      fill="white" stroke="black" />
    <path
      d="M1008.99 334.695C1012.7 335.031 1014.63 338.743 1014.63 344.677C1014.63 350.597 1012.7 358.636 1008.83 367.385C1004.95 376.134 999.877 383.889 994.831 389.352C989.774 394.829 984.831 397.919 981.117 397.583C977.402 397.247 975.474 393.535 975.474 387.601C975.473 381.681 977.4 373.642 981.278 364.893C985.156 356.144 990.228 348.389 995.273 342.926C1000.33 337.449 1005.27 334.359 1008.99 334.695Z"
      fill="white" stroke="black" />
  </g>
  <g clip-path="url(#clip7_646_2905)">
    <path d="M987.522 366.747L985.89 386.332L990.661 374.39L987.522 366.747Z" fill="url(#paint29_linear_646_2905)"
      stroke="black" stroke-width="0.5" stroke-linejoin="bevel" />
    <path d="M999.838 366.918L985.89 386.332L990.662 374.39L999.838 366.918Z" fill="url(#paint30_linear_646_2905)"
      stroke="black" stroke-width="0.5" stroke-linejoin="bevel" />
    <path d="M988.648 364.103L991.595 371.93L996.992 358.421L988.648 364.103Z" fill="url(#paint31_linear_646_2905)"
      stroke="black" stroke-width="0.5" stroke-linejoin="bevel" />
    <path d="M996.992 358.421L1003.49 342.156L988.648 364.103L996.992 358.421Z" fill="url(#paint32_linear_646_2905)"
      stroke="black" stroke-width="0.5" stroke-linejoin="bevel" />
    <path d="M1000.73 364.27L991.595 371.93L996.992 358.421L1000.73 364.27Z" fill="url(#paint33_linear_646_2905)"
      stroke="black" stroke-width="0.5" stroke-linejoin="bevel" />
    <path d="M996.992 358.421L1003.49 342.156L1000.73 364.27L996.992 358.421Z" fill="url(#paint34_linear_646_2905)"
      stroke="black" stroke-width="0.5" stroke-linejoin="bevel" />
  </g>
  <defs>
    <linearGradient id="paint0_linear_646_2905" x1="1385.94" y1="91.7053" x2="1419.25" y2="228.741"
      gradientUnits="userSpaceOnUse">
      <stop stop-color="#2177A1" />
      <stop offset="0.556317" stop-color="#2177A1" />
      <stop offset="1" stop-color="#4AA1F7" />
      <stop offset="1" stop-color="#0C2C3B" />
    </linearGradient>
    <linearGradient id="paint1_linear_646_2905" x1="1449.6" y1="115.227" x2="1479.21" y2="201.253"
      gradientUnits="userSpaceOnUse">
      <stop stop-color="#2177A1" />
      <stop offset="0.556317" stop-color="#2177A1" />
      <stop offset="1" stop-color="#4AA1F7" />
      <stop offset="1" stop-color="#0C2C3B" />
    </linearGradient>
    <linearGradient id="paint2_linear_646_2905" x1="1355.12" y1="239.571" x2="1448.65" y2="318.971"
      gradientUnits="userSpaceOnUse">
      <stop stop-color="#4FA5E4" />
      <stop offset="1" stop-color="#4BA0F4" />
      <stop offset="1" stop-color="#0C2C3B" />
    </linearGradient>
    <linearGradient id="paint3_linear_646_2905" x1="1384.37" y1="265.317" x2="1455.08" y2="349.359"
      gradientUnits="userSpaceOnUse">
      <stop stop-color="#4FA5E4" />
      <stop offset="1" stop-color="#4BA0F4" />
      <stop offset="1" stop-color="#0C2C3B" />
    </linearGradient>
    <linearGradient id="paint4_linear_646_2905" x1="1355.51" y1="288.727" x2="1439.47" y2="373.851"
      gradientUnits="userSpaceOnUse">
      <stop stop-color="#4FA5E4" />
      <stop offset="1" stop-color="#4BA0F4" />
      <stop offset="1" stop-color="#0C2C3B" />
    </linearGradient>
    <linearGradient id="paint5_linear_646_2905" x1="1374.67" y1="250.642" x2="1440.07" y2="328.368"
      gradientUnits="userSpaceOnUse">
      <stop stop-color="#4FA5E4" />
      <stop offset="1" stop-color="#4BA0F4" />
      <stop offset="1" stop-color="#0C2C3B" />
    </linearGradient>
    <linearGradient id="paint6_linear_646_2905" x1="121.974" y1="75.6182" x2="121.974" y2="256.523"
      gradientUnits="userSpaceOnUse">
      <stop stop-color="#2177A1" />
      <stop offset="0.556317" stop-color="#2177A1" />
      <stop offset="1" stop-color="#4AA1F7" />
      <stop offset="1" stop-color="#0C2C3B" />
    </linearGradient>
    <linearGradient id="paint7_linear_646_2905" x1="214.693" y1="193.992" x2="184.852" y2="275.074"
      gradientUnits="userSpaceOnUse">
      <stop stop-color="#2177A1" />
      <stop offset="0.556317" stop-color="#2177A1" />
      <stop offset="1" stop-color="#4AA1F7" />
      <stop offset="1" stop-color="#0C2C3B" />
    </linearGradient>
    <linearGradient id="paint8_linear_646_2905" x1="1005" y1="259.618" x2="1005" y2="647.618"
      gradientUnits="userSpaceOnUse">
      <stop stop-color="#AAE8FF" />
      <stop offset="1" stop-color="#EEF8FC" />
    </linearGradient>
    <linearGradient id="paint9_linear_646_2905" x1="348.672" y1="376.874" x2="337.639" y2="416.79"
      gradientUnits="userSpaceOnUse">
      <stop stop-color="#2177A1" />
      <stop offset="0.556317" stop-color="#2177A1" />
      <stop offset="1" stop-color="#4AA1F7" />
      <stop offset="1" stop-color="#0C2C3B" />
    </linearGradient>
    <linearGradient id="paint10_linear_646_2905" x1="804.906" y1="419.618" x2="804.906" y2="444.728"
      gradientUnits="userSpaceOnUse">
      <stop stop-color="#2177A1" />
      <stop offset="0.495" stop-color="#2177A1" />
    </linearGradient>
    <linearGradient id="paint11_linear_646_2905" x1="1082.32" y1="459.291" x2="1067.22" y2="459.433"
      gradientUnits="userSpaceOnUse">
      <stop stop-color="#6E89D3" />
      <stop offset="1" stop-color="#677FF0" />
    </linearGradient>
    <linearGradient id="paint12_linear_646_2905" x1="1068.25" y1="472.358" x2="1084.37" y2="472.207"
      gradientUnits="userSpaceOnUse">
      <stop stop-color="#C4C5FC" />
      <stop offset="1" stop-color="#CACEF6" />
    </linearGradient>
    <linearGradient id="paint13_linear_646_2905" x1="1086.83" y1="453.581" x2="1089.17" y2="461.784"
      gradientUnits="userSpaceOnUse">
      <stop stop-color="#D6CDFB" />
      <stop offset="1" stop-color="#DEE1F9" />
    </linearGradient>
    <linearGradient id="paint14_linear_646_2905" x1="1087.05" y1="456.498" x2="1101.49" y2="466.218"
      gradientUnits="userSpaceOnUse">
      <stop stop-color="#A795F2" />
      <stop offset="0.51" stop-color="#B7D0E1" />
      <stop offset="1" stop-color="#B7D0E1" />
    </linearGradient>
    <linearGradient id="paint15_linear_646_2905" x1="1088.9" y1="471.143" x2="1086.55" y2="462.941"
      gradientUnits="userSpaceOnUse">
      <stop stop-color="#FBFCF7" />
      <stop offset="1" stop-color="#ECF1F1" />
    </linearGradient>
    <linearGradient id="paint16_linear_646_2905" x1="1089.07" y1="468.113" x2="1104.2" y2="451.058"
      gradientUnits="userSpaceOnUse">
      <stop stop-color="#B3DCF5" />
      <stop offset="0.34" stop-color="#B9DFF4" />
      <stop offset="0.66" stop-color="#E1F0F3" />
    </linearGradient>
    <linearGradient id="paint17_linear_646_2905" x1="1074.68" y1="438.626" x2="1064.78" y2="444.625"
      gradientUnits="userSpaceOnUse">
      <stop stop-color="#6E89D3" />
      <stop offset="1" stop-color="#677FF0" />
    </linearGradient>
    <linearGradient id="paint18_linear_646_2905" x1="1069.1" y1="450.391" x2="1079.66" y2="443.992"
      gradientUnits="userSpaceOnUse">
      <stop stop-color="#C4C5FC" />
      <stop offset="1" stop-color="#CACEF6" />
    </linearGradient>
    <linearGradient id="paint19_linear_646_2905" x1="1075.72" y1="433.594" x2="1079.03" y2="441.404"
      gradientUnits="userSpaceOnUse">
      <stop stop-color="#D6CDFB" />
      <stop offset="1" stop-color="#DEE1F9" />
    </linearGradient>
    <linearGradient id="paint20_linear_646_2905" x1="1077.35" y1="435.997" x2="1095.02" y2="437.657"
      gradientUnits="userSpaceOnUse">
      <stop stop-color="#A795F2" />
      <stop offset="0.51" stop-color="#B7D0E1" />
      <stop offset="1" stop-color="#B7D0E1" />
    </linearGradient>
    <linearGradient id="paint21_linear_646_2905" x1="1086.17" y1="448.016" x2="1082.85" y2="440.206"
      gradientUnits="userSpaceOnUse">
      <stop stop-color="#FBFCF7" />
      <stop offset="1" stop-color="#ECF1F1" />
    </linearGradient>
    <linearGradient id="paint22_linear_646_2905" x1="1084.82" y1="445.493" x2="1091.95" y2="431.699"
      gradientUnits="userSpaceOnUse">
      <stop stop-color="#B3DCF5" />
      <stop offset="0.34" stop-color="#B9DFF4" />
      <stop offset="0.66" stop-color="#E1F0F3" />
    </linearGradient>
    <linearGradient id="paint23_linear_646_2905" x1="1053.47" y1="416.795" x2="1049.39" y2="432.832"
      gradientUnits="userSpaceOnUse">
      <stop stop-color="#6E89D3" />
      <stop offset="1" stop-color="#677FF0" />
    </linearGradient>
    <linearGradient id="paint24_linear_646_2905" x1="1052.17" y1="432.499" x2="1056.52" y2="415.393"
      gradientUnits="userSpaceOnUse">
      <stop stop-color="#C4C5FC" />
      <stop offset="1" stop-color="#CACEF6" />
    </linearGradient>
    <linearGradient id="paint25_linear_646_2905" x1="1052.87" y1="411.488" x2="1058.17" y2="414.246"
      gradientUnits="userSpaceOnUse">
      <stop stop-color="#D6CDFB" />
      <stop offset="1" stop-color="#DEE1F9" />
    </linearGradient>
    <linearGradient id="paint26_linear_646_2905" x1="1054.97" y1="411.799" x2="1073.48" y2="407.564"
      gradientUnits="userSpaceOnUse">
      <stop stop-color="#A795F2" />
      <stop offset="0.51" stop-color="#B7D0E1" />
      <stop offset="1" stop-color="#B7D0E1" />
    </linearGradient>
    <linearGradient id="paint27_linear_646_2905" x1="1066.04" y1="412.677" x2="1060.73" y2="409.919"
      gradientUnits="userSpaceOnUse">
      <stop stop-color="#FBFCF7" />
      <stop offset="1" stop-color="#ECF1F1" />
    </linearGradient>
    <linearGradient id="paint28_linear_646_2905" x1="1064.14" y1="411.97" x2="1056.25" y2="398.961"
      gradientUnits="userSpaceOnUse">
      <stop stop-color="#B3DCF5" />
      <stop offset="0.34" stop-color="#B9DFF4" />
      <stop offset="0.66" stop-color="#E1F0F3" />
    </linearGradient>
    <linearGradient id="paint29_linear_646_2905" x1="992.572" y1="370.093" x2="992.145" y2="386.23"
      gradientUnits="userSpaceOnUse">
      <stop stop-color="#6E89D3" />
      <stop offset="1" stop-color="#677FF0" />
    </linearGradient>
    <linearGradient id="paint30_linear_646_2905" x1="992.643" y1="385.261" x2="993.099" y2="368.047"
      gradientUnits="userSpaceOnUse">
      <stop stop-color="#C4C5FC" />
      <stop offset="1" stop-color="#CACEF6" />
    </linearGradient>
    <linearGradient id="paint31_linear_646_2905" x1="991.526" y1="365.189" x2="996.744" y2="367.291"
      gradientUnits="userSpaceOnUse">
      <stop stop-color="#D6CDFB" />
      <stop offset="1" stop-color="#DEE1F9" />
    </linearGradient>
    <linearGradient id="paint32_linear_646_2905" x1="993.626" y1="365.033" x2="1012.06" y2="358.644"
      gradientUnits="userSpaceOnUse">
      <stop stop-color="#A795F2" />
      <stop offset="0.51" stop-color="#B7D0E1" />
      <stop offset="1" stop-color="#B7D0E1" />
    </linearGradient>
    <linearGradient id="paint33_linear_646_2905" x1="1004.62" y1="363.495" x2="999.4" y2="361.393"
      gradientUnits="userSpaceOnUse">
      <stop stop-color="#FBFCF7" />
      <stop offset="1" stop-color="#ECF1F1" />
    </linearGradient>
    <linearGradient id="paint34_linear_646_2905" x1="1002.68" y1="363.231" x2="993.726" y2="352.634"
      gradientUnits="userSpaceOnUse">
      <stop stop-color="#B3DCF5" />
      <stop offset="0.34" stop-color="#B9DFF4" />
      <stop offset="0.66" stop-color="#E1F0F3" />
    </linearGradient>
    <clipPath id="clip0_646_2905">
      <rect width="156.467" height="67.5133" fill="white"
        transform="matrix(0.377414 0.134615 -0.343169 0.888967 1070.23 420.531)" />
    </clipPath>
    <clipPath id="clip1_646_2905">
      <rect width="91.0854" height="22.1145" fill="white"
        transform="matrix(0.379596 0.108176 -0.319507 0.997079 1074.07 441.416)" />
    </clipPath>
    <clipPath id="clip2_646_2905">
      <rect width="121.918" height="36.6015" fill="white"
        transform="matrix(0.482291 0.117346 0.278697 1.30681 1045.7 408.741)" />
    </clipPath>
    <clipPath id="clip3_646_2905">
      <rect width="72.2148" height="14.6876" fill="white"
        transform="matrix(0.477183 0.0813953 0.329941 1.2765 1058.79 424.353)" />
    </clipPath>
    <clipPath id="clip4_646_2905">
      <rect width="71.1553" height="53.0441" fill="white"
        transform="matrix(0.824618 -0.771788 0.495747 0.66392 1016.63 422.65)" />
    </clipPath>
    <clipPath id="clip5_646_2905">
      <rect width="38.6615" height="17.6355" fill="white"
        transform="matrix(0.805498 -0.803437 0.547793 0.605248 1035.7 421.415)" />
    </clipPath>
    <clipPath id="clip6_646_2905">
      <rect width="74.5158" height="57.8012" fill="white"
        transform="matrix(0.728918 -0.879368 0.51009 0.481363 956 384.233)" />
    </clipPath>
    <clipPath id="clip7_646_2905">
      <rect width="39.3707" height="19.2003" fill="white"
        transform="matrix(0.712285 -0.917533 0.543963 0.419342 975.446 378.28)" />
    </clipPath>
  </defs>
</svg>