<svg width="490" height="58" viewBox="0 0 490 58" fill="none" xmlns="http://www.w3.org/2000/svg">
  <path d="M56.9141 40.5156C56.9141 42.5208 56.6536 44.3307 56.1328 45.9453C55.638 47.5339 54.974 48.9401 54.1406 50.1641C53.3073 51.388 52.3307 52.4297 51.2109 53.2891C50.0911 54.1484 48.9323 54.8516 47.7344 55.3984C46.5365 55.9453 45.3125 56.349 44.0625 56.6094C42.8385 56.8698 41.6797 57 40.5859 57H1.40625V46.8438H40.5859C42.5391 46.8438 44.0495 46.2708 45.1172 45.125C46.2109 43.9792 46.7578 42.4427 46.7578 40.5156C46.7578 39.5781 46.6146 38.7188 46.3281 37.9375C46.0417 37.1563 45.625 36.4792 45.0781 35.9063C44.5573 35.3333 43.9062 34.8906 43.125 34.5781C42.3698 34.2656 41.5234 34.1094 40.5859 34.1094H17.2266C15.5859 34.1094 13.8151 33.8229 11.9141 33.25C10.013 32.6511 8.24219 31.7005 6.60156 30.3984C4.98698 29.0964 3.63281 27.3906 2.53906 25.2813C1.47135 23.1719 0.9375 20.5938 0.9375 17.5469C0.9375 14.5 1.47135 11.9349 2.53906 9.85157C3.63281 7.7422 4.98698 6.03647 6.60156 4.73438C8.24219 3.40626 10.013 2.45574 11.9141 1.88282C13.8151 1.28386 15.5859 0.984384 17.2266 0.984384H51.7969V11.1406H17.2266C15.2995 11.1406 13.7891 11.7266 12.6953 12.8984C11.6276 14.0703 11.0938 15.6198 11.0938 17.5469C11.0938 19.5 11.6276 21.0495 12.6953 22.1953C13.7891 23.3151 15.2995 23.875 17.2266 23.875H40.6641C41.7578 23.9011 42.9167 24.0573 44.1406 24.3438C45.3646 24.6042 46.5755 25.0208 47.7734 25.5938C48.9974 26.1667 50.1562 26.8958 51.25 27.7813C52.3438 28.6406 53.3073 29.6823 54.1406 30.9063C55 32.1302 55.6771 33.5365 56.1719 35.125C56.6667 36.7136 56.9141 38.5104 56.9141 40.5156Z" fill="url(#paint0_linear_29_6974)"/>
  <path d="M120.234 51.8828C120.234 52.612 120.104 53.2891 119.844 53.9141C119.583 54.5391 119.219 55.0859 118.75 55.5547C118.281 55.9974 117.734 56.349 117.109 56.6094C116.484 56.8698 115.82 57 115.117 57H92.2266C90.0651 57 87.8776 56.7656 85.6641 56.2969C83.4505 55.8281 81.3021 55.112 79.2188 54.1484C77.1615 53.1589 75.2214 51.9089 73.3984 50.3984C71.5755 48.888 69.974 47.1042 68.5938 45.0469C67.2396 42.9636 66.1719 40.5938 65.3906 37.9375C64.6094 35.2552 64.2188 32.2734 64.2188 28.9922V0.984384H74.375V28.9922C74.375 31.8568 74.7656 34.2787 75.5469 36.2578C76.3542 38.237 77.3698 39.8906 78.5938 41.2188C79.8177 42.5469 81.1589 43.5886 82.6172 44.3438C84.0755 45.099 85.4557 45.6589 86.7578 46.0234C88.0859 46.388 89.2448 46.6224 90.2344 46.7266C91.25 46.8047 91.9141 46.8438 92.2266 46.8438H110.078V0.984384H120.234V51.8828Z" fill="url(#paint1_linear_29_6974)"/>
  <path d="M188.047 52.6641C188.047 53.3932 187.904 54.0703 187.617 54.6953C187.357 55.3203 186.992 55.8672 186.523 56.3359C186.081 56.7787 185.547 57.1302 184.922 57.3906C184.297 57.6511 183.633 57.7813 182.93 57.7813C182.305 57.7813 181.667 57.6641 181.016 57.4297C180.391 57.1953 179.831 56.8177 179.336 56.2969L142.227 17.5469V57H132.07V5.32032C132.07 4.27866 132.357 3.34115 132.93 2.50782C133.529 1.64845 134.284 1.01043 135.195 0.593759C136.159 0.203134 137.148 0.111988 138.164 0.320322C139.18 0.502613 140.052 0.971363 140.781 1.72657L177.891 40.4375V0.984384H188.047V52.6641Z" fill="url(#paint2_linear_29_6974)"/>
  <path d="M281.719 24.4219C281.719 26.7396 281.432 28.8099 280.859 30.6328C280.286 32.4557 279.505 34.0703 278.516 35.4766C277.552 36.8568 276.432 38.0417 275.156 39.0313C273.88 40.0208 272.539 40.8281 271.133 41.4531C269.753 42.0781 268.346 42.5339 266.914 42.8203C265.508 43.1068 264.18 43.25 262.93 43.25H239.961V33.0938H262.93C264.232 32.9896 265.404 32.7292 266.445 32.3125C267.513 31.8698 268.424 31.2839 269.18 30.5547C269.935 29.8255 270.521 28.9531 270.938 27.9375C271.354 26.8958 271.562 25.724 271.562 24.4219V19.8125C271.432 18.5365 271.159 17.3646 270.742 16.2969C270.326 15.2292 269.753 14.3177 269.023 13.5625C268.32 12.8073 267.461 12.2214 266.445 11.8047C265.43 11.362 264.258 11.1406 262.93 11.1406H240.039C238.685 11.1406 237.656 11.4922 236.953 12.1953C236.25 12.8984 235.898 13.9141 235.898 15.2422V57H225.742V15.2422C225.742 12.638 226.211 10.4245 227.148 8.60157C228.112 6.77865 229.297 5.3073 230.703 4.18751C232.135 3.06772 233.685 2.26043 235.352 1.76563C237.018 1.2448 238.555 0.984384 239.961 0.984384H262.93C265.221 0.984384 267.279 1.28386 269.102 1.88282C270.924 2.45574 272.526 3.23699 273.906 4.22657C275.312 5.19011 276.497 6.30991 277.461 7.58595C278.451 8.86199 279.258 10.2031 279.883 11.6094C280.534 12.9896 281.003 14.3958 281.289 15.8281C281.576 17.2344 281.719 18.5625 281.719 19.8125V24.4219Z" fill="url(#paint3_linear_29_6974)"/>
  <path d="M345.312 51.8828C345.312 52.612 345.182 53.2891 344.922 53.9141C344.661 54.5391 344.297 55.0859 343.828 55.5547C343.359 55.9974 342.812 56.349 342.188 56.6094C341.562 56.8698 340.898 57 340.195 57H317.305C315.143 57 312.956 56.7656 310.742 56.2969C308.529 55.8281 306.38 55.112 304.297 54.1484C302.24 53.1589 300.299 51.9089 298.477 50.3984C296.654 48.888 295.052 47.1042 293.672 45.0469C292.318 42.9636 291.25 40.5938 290.469 37.9375C289.688 35.2552 289.297 32.2734 289.297 28.9922V0.984384H299.453V28.9922C299.453 31.8568 299.844 34.2787 300.625 36.2578C301.432 38.237 302.448 39.8906 303.672 41.2188C304.896 42.5469 306.237 43.5886 307.695 44.3438C309.154 45.099 310.534 45.6589 311.836 46.0234C313.164 46.388 314.323 46.6224 315.312 46.7266C316.328 46.8047 316.992 46.8438 317.305 46.8438H335.156V0.984384H345.312V51.8828Z" fill="url(#paint4_linear_29_6974)"/>
  <path d="M422.344 57H412.109V23.6406L394.102 55.3203C393.659 56.1276 393.034 56.7396 392.227 57.1563C391.445 57.5729 390.599 57.7813 389.688 57.7813C388.802 57.7813 387.969 57.5729 387.188 57.1563C386.432 56.7396 385.833 56.1276 385.391 55.3203L367.305 23.6406V57H357.148V5.32032C357.148 4.14845 357.487 3.10678 358.164 2.19532C358.867 1.28386 359.779 0.671884 360.898 0.359384C361.445 0.229176 361.992 0.190113 362.539 0.242197C363.086 0.268238 363.607 0.385426 364.102 0.593759C364.622 0.776051 365.091 1.04949 365.508 1.41407C365.924 1.75261 366.276 2.16928 366.562 2.66407L389.688 42.8594L412.812 2.66407C413.411 1.67449 414.232 0.971363 415.273 0.554697C416.341 0.13803 417.448 0.0729257 418.594 0.359384C419.688 0.671884 420.586 1.28386 421.289 2.19532C421.992 3.10678 422.344 4.14845 422.344 5.32032V57Z" fill="url(#paint5_linear_29_6974)"/>
  <path d="M490 24.4219C490 26.7396 489.714 28.8099 489.141 30.6328C488.568 32.4557 487.786 34.0703 486.797 35.4766C485.833 36.8568 484.714 38.0417 483.438 39.0313C482.161 40.0208 480.82 40.8281 479.414 41.4531C478.034 42.0781 476.628 42.5339 475.195 42.8203C473.789 43.1068 472.461 43.25 471.211 43.25H448.242V33.0938H471.211C472.513 32.9896 473.685 32.7292 474.727 32.3125C475.794 31.8698 476.706 31.2839 477.461 30.5547C478.216 29.8255 478.802 28.9531 479.219 27.9375C479.635 26.8958 479.844 25.724 479.844 24.4219V19.8125C479.714 18.5365 479.44 17.3646 479.023 16.2969C478.607 15.2292 478.034 14.3177 477.305 13.5625C476.602 12.8073 475.742 12.2214 474.727 11.8047C473.711 11.362 472.539 11.1406 471.211 11.1406H448.32C446.966 11.1406 445.938 11.4922 445.234 12.1953C444.531 12.8984 444.18 13.9141 444.18 15.2422V57H434.023V15.2422C434.023 12.638 434.492 10.4245 435.43 8.60157C436.393 6.77865 437.578 5.3073 438.984 4.18751C440.417 3.06772 441.966 2.26043 443.633 1.76563C445.299 1.2448 446.836 0.984384 448.242 0.984384H471.211C473.503 0.984384 475.56 1.28386 477.383 1.88282C479.206 2.45574 480.807 3.23699 482.188 4.22657C483.594 5.19011 484.779 6.30991 485.742 7.58595C486.732 8.86199 487.539 10.2031 488.164 11.6094C488.815 12.9896 489.284 14.3958 489.57 15.8281C489.857 17.2344 490 18.5625 490 19.8125V24.4219Z" fill="url(#paint6_linear_29_6974)"/>
  <defs>
    <linearGradient id="paint0_linear_29_6974" x1="43.4171" y1="-62.4285" x2="593.983" y2="4.1312" gradientUnits="userSpaceOnUse">
      <stop stop-color="white"/>
      <stop offset="0.884136" stop-color="#6001FF"/>
    </linearGradient>
    <linearGradient id="paint1_linear_29_6974" x1="43.4171" y1="-62.4285" x2="593.983" y2="4.1312" gradientUnits="userSpaceOnUse">
      <stop stop-color="white"/>
      <stop offset="0.884136" stop-color="#6001FF"/>
    </linearGradient>
    <linearGradient id="paint2_linear_29_6974" x1="43.4171" y1="-62.4285" x2="593.983" y2="4.1312" gradientUnits="userSpaceOnUse">
      <stop stop-color="white"/>
      <stop offset="0.884136" stop-color="#6001FF"/>
    </linearGradient>
    <linearGradient id="paint3_linear_29_6974" x1="43.4171" y1="-62.4285" x2="593.983" y2="4.1312" gradientUnits="userSpaceOnUse">
      <stop stop-color="white"/>
      <stop offset="0.884136" stop-color="#6001FF"/>
    </linearGradient>
    <linearGradient id="paint4_linear_29_6974" x1="43.4171" y1="-62.4285" x2="593.983" y2="4.1312" gradientUnits="userSpaceOnUse">
      <stop stop-color="white"/>
      <stop offset="0.884136" stop-color="#6001FF"/>
    </linearGradient>
    <linearGradient id="paint5_linear_29_6974" x1="43.4171" y1="-62.4285" x2="593.983" y2="4.1312" gradientUnits="userSpaceOnUse">
      <stop stop-color="white"/>
      <stop offset="0.884136" stop-color="#6001FF"/>
    </linearGradient>
    <linearGradient id="paint6_linear_29_6974" x1="43.4171" y1="-62.4285" x2="593.983" y2="4.1312" gradientUnits="userSpaceOnUse">
      <stop stop-color="white"/>
      <stop offset="0.884136" stop-color="#6001FF"/>
    </linearGradient>
  </defs>
</svg>
