<svg width="245" height="32" viewBox="0 0 245 32" fill="none" xmlns="http://www.w3.org/2000/svg">
  <circle cx="16" cy="16" r="16" fill="url(#paint0_linear_1_23)"/>
  <mask id="mask0_1_23" style="mask-type:luminance" maskUnits="userSpaceOnUse" x="0" y="0" width="32" height="32">
    <circle cx="16" cy="16" r="16" fill="white"/>
  </mask>
  <g mask="url(#mask0_1_23)">
    <path d="M15.6623 -3.81934V7.32909" stroke="white" stroke-width="0.789865"/>
    <path d="M14.011 -3.81934V7.32909" stroke="white" stroke-width="0.789865"/>
    <path d="M17.8303 -3.81934V7.32909" stroke="white" stroke-width="0.789865"/>
    <path d="M8.67145 -1.64761L12.2862 5.09456V-2.58057" stroke="white" stroke-width="0.789865"/>
    <path d="M23.1246 -1.85404L19.5099 4.88813V-2.78699" stroke="white" stroke-width="0.789865"/>
    <path d="M16.2348 37.2645V26.1161" stroke="white" stroke-width="0.789865"/>
    <path d="M17.8866 37.2645V26.1161" stroke="white" stroke-width="0.789865"/>
    <path d="M14.0671 37.2645V26.1161" stroke="white" stroke-width="0.789865"/>
    <path d="M23.3309 35.2325L19.7162 28.4904V36.1655" stroke="white" stroke-width="0.789865"/>
    <path d="M8.67114 35.3356L12.2859 28.5934V36.2685" stroke="white" stroke-width="0.789865"/>
    <path d="M-4.59308 17.0091H6.55531" stroke="white" stroke-width="0.789865"/>
    <path d="M-4.59308 18.6606H6.55531" stroke="white" stroke-width="0.789865"/>
    <path d="M-4.59308 14.8414H6.55531" stroke="white" stroke-width="0.789865"/>
    <path d="M-2.67959 24.0534L4.06257 20.4387H-3.61255" stroke="white" stroke-width="0.789865"/>
    <path d="M-1.957 9.80652L4.78516 13.4212H-2.88995" stroke="white" stroke-width="0.789865"/>
    <path d="M36.4906 16.4364H25.3422" stroke="white" stroke-width="0.789865"/>
    <path d="M36.4906 14.7846H25.3422" stroke="white" stroke-width="0.789865"/>
    <path d="M36.4906 18.604H25.3422" stroke="white" stroke-width="0.789865"/>
    <path d="M34.2007 9.39368L27.4586 13.0085H35.1337" stroke="white" stroke-width="0.789865"/>
    <path d="M34.6135 23.9504L27.8714 20.3356H35.5465" stroke="white" stroke-width="0.789865"/>
    <path d="M1.62561 31.4504L9.50872 23.5673" stroke="white" stroke-width="0.789865"/>
    <path d="M2.7937 32.6181L10.6768 24.735" stroke="white" stroke-width="0.789865"/>
    <path d="M0.0926514 29.9176L7.97573 22.0345" stroke="white" stroke-width="0.789865"/>
    <path d="M8.37668 35.091L10.5882 27.7676L5.16101 33.1947" stroke="white" stroke-width="0.789865"/>
    <path d="M-2.33374 24.4834L4.98969 22.272L-0.437434 27.6991" stroke="white" stroke-width="0.789865"/>
    <path d="M30.2719 1.99463L22.3888 9.87775" stroke="white" stroke-width="0.789865"/>
    <path d="M29.1042 0.826782L21.2211 8.70991" stroke="white" stroke-width="0.789865"/>
    <path d="M31.8048 3.52747L23.9218 11.4106" stroke="white" stroke-width="0.789865"/>
    <path d="M23.7618 -1.40491L21.5504 5.91853L26.9775 0.4914" stroke="white" stroke-width="0.789865"/>
    <path d="M34.1628 8.78981L26.8394 11.0012L32.2665 5.5741" stroke="white" stroke-width="0.789865"/>
    <path d="M30.6759 31.0454L22.7928 23.1624" stroke="white" stroke-width="0.789865"/>
    <path d="M31.844 29.8776L23.9609 21.9945" stroke="white" stroke-width="0.789865"/>
    <path d="M29.143 32.5784L21.2599 24.6953" stroke="white" stroke-width="0.789865"/>
    <path d="M34.3687 24.4836L27.0453 22.2721L32.4724 27.6992" stroke="white" stroke-width="0.789865"/>
    <path d="M23.8639 34.988L21.6525 27.6646L27.0796 33.0917" stroke="white" stroke-width="0.789865"/>
    <path d="M1.22052 2.39978L9.10364 10.2829" stroke="white" stroke-width="0.789865"/>
    <path d="M0.0524292 3.56763L7.93553 11.4507" stroke="white" stroke-width="0.789865"/>
    <path d="M2.75348 0.866821L10.6366 8.74996" stroke="white" stroke-width="0.789865"/>
    <path d="M-1.81775 9.30603L5.50569 11.5174L0.0785618 6.09033" stroke="white" stroke-width="0.789865"/>
    <path d="M8.27354 -1.09521L10.485 6.22823L5.05786 0.801098" stroke="white" stroke-width="0.789865"/>
  </g>
  <circle cx="15.9488" cy="16.0515" r="10.9246" fill="#F8BA3A" stroke="white" stroke-width="0.677027"/>
  <mask id="mask1_1_23" style="mask-type:luminance" maskUnits="userSpaceOnUse" x="5" y="6" width="22" height="22">
    <circle cx="16.0519" cy="16.9246" r="10.9246" fill="white"/>
  </mask>
  <g mask="url(#mask1_1_23)">
    <path fill-rule="evenodd" clip-rule="evenodd" d="M16.5681 5.51819L15.1229 17.1311H16.5681L16.0004 27.8424L26.5326 25.9569L28.4436 11.2514L23.8018 7.1698L16.5681 5.51819Z" fill="white"/>
  </g>
  <path d="M5.83718 14.5978C6.08582 16.6228 7.40315 18.7297 9.42761 18.4811C16.2986 17.6374 15.3332 13.2221 15.2406 11.7921C15.7379 15.8421 18.8139 17.3286 23.9671 16.6958C25.5007 16.5075 26.1291 13.5101 25.9592 12.1271C25.747 10.3984 21.17 10.1457 15.4647 10.8462C9.75934 11.5467 5.52637 12.0665 5.83718 14.5978Z" fill="#01C1AE" stroke="#01C1AE" stroke-width="1.24122" stroke-linecap="round" stroke-linejoin="round"/>
  <path d="M16.1161 23.0003C18.5099 22.805 20.3057 20.8724 20.1271 18.6838L11.4584 19.3911C11.6369 21.5797 13.7223 23.1956 16.1161 23.0003Z" fill="white" stroke="#FE9D51" stroke-width="0.564189" stroke-linejoin="round"/>
  <path d="M17.2385 20.6451H19.6127" stroke="#FE9A54" stroke-width="0.451351" stroke-linecap="round" stroke-linejoin="round"/>
  <path d="M18.5292 15.7418C16.6711 15.0399 15.9314 13.1784 15.7938 12.3354C15.7938 11.1999 17.0841 11.045 20.2324 11.045C23.3808 11.045 25.2905 11.3031 25.4453 12.1289C25.6002 13.5741 25.0841 15.7418 24.3615 16.1031C23.6389 16.4644 20.8518 16.6192 18.5292 15.7418Z" fill="black" stroke="black" stroke-width="0.112838"/>
  <path d="M13.064 16.7099C14.5551 15.7272 15.3293 13.8322 14.8648 12.2322C14.6002 11.3209 13.1477 11.5444 10.4261 11.9742C8.00028 12.3572 6.14223 13.4193 6.34868 14.3483C6.45185 15.8705 7.62609 17.4782 8.30996 17.7548C8.99384 18.0314 11.2003 17.9382 13.064 16.7099Z" fill="black" stroke="black" stroke-width="0.112838"/>
  <path d="M25.9614 7.43213L26.8675 9.88091L29.3163 10.787L26.8675 11.6931L25.9614 14.1418L25.0553 11.6931L22.6066 10.787L25.0553 9.88091L25.9614 7.43213Z" fill="white"/>
  <path d="M60.0942 19.0547C60.0942 19.6562 60.0161 20.1992 59.8598 20.6836C59.7114 21.1602 59.5122 21.582 59.2622 21.9492C59.0122 22.3164 58.7192 22.6289 58.3833 22.8867C58.0473 23.1445 57.6997 23.3555 57.3403 23.5195C56.9809 23.6836 56.6137 23.8047 56.2387 23.8828C55.8716 23.9609 55.5239 24 55.1958 24H43.4419V20.9531H55.1958C55.7817 20.9531 56.2348 20.7812 56.5552 20.4375C56.8833 20.0938 57.0473 19.6328 57.0473 19.0547C57.0473 18.7734 57.0044 18.5156 56.9184 18.2812C56.8325 18.0469 56.7075 17.8438 56.5434 17.6719C56.3872 17.5 56.1919 17.3672 55.9575 17.2734C55.7309 17.1797 55.477 17.1328 55.1958 17.1328H48.188C47.6958 17.1328 47.1645 17.0469 46.5942 16.875C46.0239 16.6953 45.4927 16.4102 45.0005 16.0195C44.5161 15.6289 44.1098 15.1172 43.7817 14.4844C43.4614 13.8516 43.3012 13.0781 43.3012 12.1641C43.3012 11.25 43.4614 10.4805 43.7817 9.85547C44.1098 9.22266 44.5161 8.71094 45.0005 8.32031C45.4927 7.92188 46.0239 7.63672 46.5942 7.46484C47.1645 7.28516 47.6958 7.19531 48.188 7.19531H58.5591V10.2422H48.188C47.6098 10.2422 47.1567 10.418 46.8286 10.7695C46.5083 11.1211 46.3481 11.5859 46.3481 12.1641C46.3481 12.75 46.5083 13.2148 46.8286 13.5586C47.1567 13.8945 47.6098 14.0625 48.188 14.0625H55.1958H55.2192C55.5473 14.0703 55.895 14.1172 56.2622 14.2031C56.6294 14.2812 56.9927 14.4062 57.352 14.5781C57.7192 14.75 58.0669 14.9688 58.395 15.2344C58.7231 15.4922 59.0122 15.8047 59.2622 16.1719C59.52 16.5391 59.7231 16.9609 59.8716 17.4375C60.02 17.9141 60.0942 18.4531 60.0942 19.0547ZM78.3703 22.4648C78.3703 22.6836 78.3312 22.8867 78.2531 23.0742C78.175 23.2617 78.0656 23.4258 77.925 23.5664C77.7844 23.6992 77.6203 23.8047 77.4328 23.8828C77.2453 23.9609 77.0461 24 76.8352 24H69.968C69.3195 24 68.6633 23.9297 67.9992 23.7891C67.3352 23.6484 66.6906 23.4336 66.0656 23.1445C65.4484 22.8477 64.8664 22.4727 64.3195 22.0195C63.7727 21.5664 63.2922 21.0312 62.8781 20.4141C62.4719 19.7891 62.1516 19.0781 61.9172 18.2812C61.6828 17.4766 61.5656 16.582 61.5656 15.5977V7.19531H64.6125V15.5977C64.6125 16.457 64.7297 17.1836 64.9641 17.7773C65.2062 18.3711 65.5109 18.8672 65.8781 19.2656C66.2453 19.6641 66.6477 19.9766 67.0852 20.2031C67.5227 20.4297 67.9367 20.5977 68.3273 20.707C68.7258 20.8164 69.0734 20.8867 69.3703 20.918C69.675 20.9414 69.8742 20.9531 69.968 20.9531H75.3234V7.19531H78.3703V22.4648ZM97.9941 22.6992C97.9941 22.918 97.9511 23.1211 97.8652 23.3086C97.787 23.4961 97.6777 23.6602 97.537 23.8008C97.4042 23.9336 97.2441 24.0391 97.0566 24.1172C96.8691 24.1953 96.6698 24.2344 96.4589 24.2344C96.2714 24.2344 96.08 24.1992 95.8847 24.1289C95.6972 24.0586 95.5292 23.9453 95.3808 23.7891L84.248 12.1641V24H81.2011V8.49609C81.2011 8.18359 81.287 7.90234 81.4589 7.65234C81.6386 7.39453 81.8652 7.20313 82.1386 7.07812C82.4277 6.96094 82.7245 6.93359 83.0292 6.99609C83.3339 7.05078 83.5956 7.19141 83.8144 7.41797L94.9472 19.0312V7.19531H97.9941V22.6992ZM124.656 14.2266C124.656 14.9219 124.57 15.543 124.398 16.0898C124.226 16.6367 123.992 17.1211 123.695 17.543C123.406 17.957 123.07 18.3125 122.687 18.6094C122.304 18.9062 121.902 19.1484 121.48 19.3359C121.066 19.5234 120.644 19.6602 120.214 19.7461C119.792 19.832 119.394 19.875 119.019 19.875H112.128V16.8281H119.019C119.41 16.7969 119.761 16.7188 120.074 16.5938C120.394 16.4609 120.667 16.2852 120.894 16.0664C121.12 15.8477 121.296 15.5859 121.421 15.2812C121.546 14.9688 121.609 14.6172 121.609 14.2266V12.8438C121.57 12.4609 121.488 12.1094 121.363 11.7891C121.238 11.4688 121.066 11.1953 120.847 10.9688C120.636 10.7422 120.378 10.5664 120.074 10.4414C119.769 10.3086 119.417 10.2422 119.019 10.2422H112.152C111.745 10.2422 111.437 10.3477 111.226 10.5586C111.015 10.7695 110.91 11.0742 110.91 11.4727V24H107.863V11.4727C107.863 10.6914 108.003 10.0273 108.285 9.48047C108.574 8.93359 108.929 8.49219 109.351 8.15625C109.781 7.82031 110.245 7.57813 110.745 7.42969C111.245 7.27344 111.706 7.19531 112.128 7.19531H119.019C119.706 7.19531 120.324 7.28516 120.87 7.46484C121.417 7.63672 121.898 7.87109 122.312 8.16797C122.734 8.45703 123.089 8.79297 123.378 9.17578C123.675 9.55859 123.917 9.96094 124.105 10.3828C124.3 10.7969 124.441 11.2188 124.527 11.6484C124.613 12.0703 124.656 12.4688 124.656 12.8438V14.2266ZM143.014 22.4648C143.014 22.6836 142.975 22.8867 142.897 23.0742C142.818 23.2617 142.709 23.4258 142.568 23.5664C142.428 23.6992 142.264 23.8047 142.076 23.8828C141.889 23.9609 141.69 24 141.479 24H134.611C133.963 24 133.307 23.9297 132.643 23.7891C131.979 23.6484 131.334 23.4336 130.709 23.1445C130.092 22.8477 129.51 22.4727 128.963 22.0195C128.416 21.5664 127.936 21.0312 127.522 20.4141C127.115 19.7891 126.795 19.0781 126.561 18.2812C126.326 17.4766 126.209 16.582 126.209 15.5977V7.19531H129.256V15.5977C129.256 16.457 129.373 17.1836 129.607 17.7773C129.85 18.3711 130.154 18.8672 130.522 19.2656C130.889 19.6641 131.291 19.9766 131.729 20.2031C132.166 20.4297 132.58 20.5977 132.971 20.707C133.369 20.8164 133.717 20.8867 134.014 20.918C134.318 20.9414 134.518 20.9531 134.611 20.9531H139.967V7.19531H143.014V22.4648ZM165.403 24H162.333V13.9922L156.93 23.4961C156.798 23.7383 156.61 23.9219 156.368 24.0469C156.134 24.1719 155.88 24.2344 155.606 24.2344C155.341 24.2344 155.091 24.1719 154.856 24.0469C154.63 23.9219 154.45 23.7383 154.317 23.4961L148.891 13.9922V24H145.845V8.49609C145.845 8.14453 145.946 7.83203 146.149 7.55859C146.36 7.28516 146.634 7.10156 146.97 7.00781C147.134 6.96875 147.298 6.95703 147.462 6.97266C147.626 6.98047 147.782 7.01563 147.93 7.07812C148.087 7.13281 148.227 7.21484 148.352 7.32422C148.477 7.42578 148.583 7.55078 148.669 7.69922L155.606 19.7578L162.544 7.69922C162.723 7.40234 162.97 7.19141 163.282 7.06641C163.602 6.94141 163.934 6.92188 164.278 7.00781C164.606 7.10156 164.876 7.28516 165.087 7.55859C165.298 7.83203 165.403 8.14453 165.403 8.49609V24ZM184.98 14.2266C184.98 14.9219 184.894 15.543 184.722 16.0898C184.55 16.6367 184.316 17.1211 184.019 17.543C183.73 17.957 183.394 18.3125 183.011 18.6094C182.628 18.9062 182.226 19.1484 181.804 19.3359C181.39 19.5234 180.968 19.6602 180.539 19.7461C180.117 19.832 179.718 19.875 179.343 19.875H172.453V16.8281H179.343C179.734 16.7969 180.085 16.7188 180.398 16.5938C180.718 16.4609 180.992 16.2852 181.218 16.0664C181.445 15.8477 181.621 15.5859 181.746 15.2812C181.871 14.9688 181.933 14.6172 181.933 14.2266V12.8438C181.894 12.4609 181.812 12.1094 181.687 11.7891C181.562 11.4688 181.39 11.1953 181.171 10.9688C180.96 10.7422 180.703 10.5664 180.398 10.4414C180.093 10.3086 179.742 10.2422 179.343 10.2422H172.476C172.07 10.2422 171.761 10.3477 171.55 10.5586C171.339 10.7695 171.234 11.0742 171.234 11.4727V24H168.187V11.4727C168.187 10.6914 168.328 10.0273 168.609 9.48047C168.898 8.93359 169.253 8.49219 169.675 8.15625C170.105 7.82031 170.57 7.57813 171.07 7.42969C171.57 7.27344 172.031 7.19531 172.453 7.19531H179.343C180.031 7.19531 180.648 7.28516 181.195 7.46484C181.742 7.63672 182.222 7.87109 182.636 8.16797C183.058 8.45703 183.414 8.79297 183.703 9.17578C184 9.55859 184.242 9.96094 184.429 10.3828C184.625 10.7969 184.765 11.2188 184.851 11.6484C184.937 12.0703 184.98 12.4688 184.98 12.8438V14.2266Z" fill="white"/>
  <rect x="197" y="7" width="48" height="18" rx="4" fill="#1E183C"/>
  <path d="M208.686 11.432H212.61C213.462 11.432 214.134 11.636 214.614 12.044C215.058 12.428 215.286 12.944 215.286 13.592C215.286 14.072 215.166 14.48 214.938 14.816C214.71 15.128 214.386 15.356 213.954 15.524C214.518 15.632 214.938 15.86 215.226 16.208C215.502 16.544 215.646 17.012 215.646 17.588C215.646 18.452 215.346 19.088 214.758 19.496C214.254 19.832 213.534 20 212.622 20H208.686V11.432ZM210.09 12.584V15.032H212.238C212.838 15.032 213.258 14.924 213.51 14.732C213.75 14.528 213.882 14.204 213.882 13.76C213.882 13.352 213.75 13.052 213.51 12.872C213.246 12.68 212.838 12.584 212.262 12.584H210.09ZM210.09 16.184V18.848H212.418C212.946 18.848 213.366 18.764 213.666 18.596C214.05 18.38 214.242 18.044 214.242 17.564C214.242 17.072 214.098 16.724 213.822 16.508C213.534 16.292 213.078 16.184 212.454 16.184H210.09ZM219.491 13.628C220.511 13.628 221.291 13.964 221.831 14.66C222.323 15.284 222.575 16.16 222.575 17.276H217.931C217.979 17.852 218.135 18.296 218.399 18.596C218.663 18.896 219.047 19.052 219.539 19.052C219.959 19.052 220.295 18.956 220.559 18.764C220.763 18.608 220.943 18.356 221.111 18.008H222.479C222.335 18.584 222.047 19.076 221.615 19.46C221.063 19.928 220.379 20.168 219.551 20.168C218.627 20.168 217.895 19.88 217.355 19.316C216.779 18.728 216.491 17.924 216.491 16.892C216.491 15.968 216.755 15.2 217.307 14.576C217.835 13.94 218.567 13.628 219.491 13.628ZM219.527 14.744C219.071 14.744 218.723 14.864 218.459 15.128C218.207 15.38 218.039 15.752 217.955 16.244H221.147C221.027 15.236 220.487 14.744 219.527 14.744ZM225.603 11.792V13.796H226.983V14.924H225.603V18.428C225.603 18.572 225.627 18.68 225.699 18.764C225.771 18.836 225.867 18.872 226.011 18.872H226.827V20H225.783C225.243 20 224.847 19.856 224.595 19.568C224.355 19.304 224.235 18.932 224.235 18.428V14.924H223.119V13.796H224.235V12.356L225.603 11.792ZM230.827 13.628C231.739 13.628 232.423 13.856 232.855 14.312C233.239 14.708 233.431 15.284 233.431 16.04V20H232.159V19.184C231.919 19.496 231.619 19.724 231.271 19.892C230.875 20.072 230.407 20.168 229.867 20.168C229.219 20.168 228.715 20 228.343 19.676C227.959 19.34 227.767 18.92 227.767 18.404C227.767 17.708 228.031 17.168 228.583 16.796C229.087 16.436 229.795 16.244 230.707 16.22L232.063 16.184V15.944C232.063 15.128 231.619 14.732 230.731 14.732C230.347 14.732 230.047 14.792 229.819 14.936C229.555 15.092 229.375 15.332 229.303 15.656L227.947 15.548C228.079 14.864 228.415 14.36 228.955 14.048C229.411 13.76 230.035 13.628 230.827 13.628ZM232.063 17.168L230.803 17.204C229.711 17.228 229.171 17.612 229.171 18.356C229.171 18.572 229.255 18.752 229.447 18.896C229.639 19.04 229.879 19.124 230.179 19.124C230.707 19.124 231.151 18.968 231.511 18.668C231.871 18.356 232.063 17.96 232.063 17.48V17.168Z" fill="#B482FF"/>
  <defs>
    <linearGradient id="paint0_linear_1_23" x1="0" y1="0" x2="0" y2="32" gradientUnits="userSpaceOnUse">
      <stop stop-color="#F5B745"/>
      <stop offset="1" stop-color="#FC8B47"/>
    </linearGradient>
  </defs>
</svg>
